<svg width="184" height="39" viewBox="0 0 184 39" fill="none" xmlns="http://www.w3.org/2000/svg">
<path d="M23.56 30.56C20.7867 31.68 18.2 32.32 15.8 32.48C13.4267 32.6667 11.28 32.4533 9.36 31.84C7.44 31.2 5.8 30.24 4.44 28.96C3.08 27.68 2.04 26.16 1.32 24.4C0.6 22.64 0.24 20.72 0.24 18.64C0.24 16.5867 0.573333 14.6933 1.24 12.96C1.90667 11.2 2.88 9.68 4.16 8.4C5.46667 7.12 7.04 6.12 8.88 5.4C10.72 4.68 12.8133 4.33333 15.16 4.36C17.5067 4.36 20.08 4.78666 22.88 5.64C22.88 6.76 22.88 7.89333 22.88 9.04C22.88 10.16 22.88 11.28 22.88 12.4C20.6667 11.52 18.6133 11.0133 16.72 10.88C14.8533 10.7467 13.2133 10.9467 11.8 11.48C10.4133 12.0133 9.32 12.8667 8.52 14.04C7.74667 15.1867 7.36 16.6267 7.36 18.36C7.36 19.88 7.64 21.2267 8.2 22.4C8.78667 23.5733 9.6 24.4933 10.64 25.16C11.68 25.8267 12.8667 26.16 14.2 26.16C14.6533 26.16 15.1067 26.1467 15.56 26.12C16.0133 26.0667 16.4533 25.9867 16.88 25.88C16.88 25.1867 16.88 24.48 16.88 23.76C16.88 23.04 16.88 22.3333 16.88 21.64C16.1333 21.64 15.3867 21.64 14.64 21.64C13.8933 21.64 13.1467 21.64 12.4 21.64C12.4 20.6533 12.4 19.6667 12.4 18.68C12.4 17.6667 12.4 16.6667 12.4 15.68C14.24 15.68 16.0933 15.68 17.96 15.68C19.8533 15.68 21.72 15.68 23.56 15.68C23.56 18.1333 23.56 20.6133 23.56 23.12C23.56 25.6267 23.56 28.1067 23.56 30.56ZM31.7513 8.96C30.9779 8.96 30.2713 8.77333 29.6313 8.4C29.0179 8.02667 28.5246 7.53333 28.1513 6.92C27.7779 6.30667 27.5913 5.62667 27.5913 4.88C27.5913 4.13333 27.7779 3.46667 28.1513 2.88C28.5246 2.26666 29.0179 1.77333 29.6313 1.4C30.2713 1.02666 30.9779 0.839998 31.7513 0.839998C32.4979 0.839998 33.1779 1.02666 33.7913 1.4C34.4313 1.77333 34.9379 2.26666 35.3113 2.88C35.6846 3.46667 35.8713 4.13333 35.8713 4.88C35.8713 5.62667 35.6846 6.30667 35.3113 6.92C34.9379 7.53333 34.4313 8.02667 33.7913 8.4C33.1779 8.77333 32.4979 8.96 31.7513 8.96ZM28.4313 32C28.4313 28.5867 28.4313 25.1467 28.4313 21.68C28.4313 18.1867 28.4313 14.7333 28.4313 11.32C29.5246 11.32 30.6313 11.32 31.7513 11.32C32.8713 11.32 33.9646 11.32 35.0313 11.32C35.0313 14.7333 35.0313 18.1867 35.0313 21.68C35.0313 25.1467 35.0313 28.5867 35.0313 32C33.9646 32 32.8713 32 31.7513 32C30.6313 32 29.5246 32 28.4313 32ZM59.0775 28.64C59.0775 30.9067 58.5842 32.8 57.5975 34.32C56.6375 35.84 55.3175 36.9733 53.6375 37.72C51.9575 38.4933 50.0375 38.8933 47.8775 38.92C45.7442 38.9467 43.4908 38.6267 41.1175 37.96C41.1175 36.92 41.1175 35.8667 41.1175 34.8C41.1175 33.76 41.1175 32.72 41.1175 31.68C43.2242 32.5067 45.1308 32.92 46.8375 32.92C48.5442 32.9467 49.8908 32.6267 50.8775 31.96C51.8908 31.2667 52.3975 30.32 52.3975 29.12C52.3975 28.9867 52.3975 28.8667 52.3975 28.76C52.3975 28.6267 52.3975 28.5067 52.3975 28.4C51.7308 28.9067 50.9575 29.3067 50.0775 29.6C49.1975 29.8933 48.2508 30.04 47.2375 30.04C45.5575 30.04 44.0508 29.6533 42.7175 28.88C41.4108 28.08 40.3842 26.9867 39.6375 25.6C38.8908 24.1867 38.5175 22.5467 38.5175 20.68C38.5175 19.24 38.7575 17.92 39.2375 16.72C39.7175 15.52 40.3842 14.48 41.2375 13.6C42.0908 12.72 43.0642 12.0533 44.1575 11.6C45.2508 11.12 46.3975 10.88 47.5975 10.88C48.5575 10.88 49.4508 11.0133 50.2775 11.28C51.1042 11.5467 51.8375 11.9067 52.4775 12.36C52.4775 12.1733 52.4775 12 52.4775 11.84C52.4775 11.68 52.4775 11.5067 52.4775 11.32C53.5708 11.32 54.6775 11.32 55.7975 11.32C56.9175 11.32 58.0108 11.32 59.0775 11.32C59.0775 14.1733 59.0775 17.0667 59.0775 20C59.0775 22.9067 59.0775 25.7867 59.0775 28.64ZM48.8775 24.32C49.9975 24.32 50.8908 23.9733 51.5575 23.28C52.2508 22.56 52.5975 21.64 52.5975 20.52C52.5975 19.3733 52.2508 18.44 51.5575 17.72C50.8908 17 49.9975 16.64 48.8775 16.64C47.7042 16.64 46.7708 17 46.0775 17.72C45.3842 18.4133 45.0375 19.3467 45.0375 20.52C45.0375 21.6667 45.3842 22.5867 46.0775 23.28C46.7708 23.9733 47.7042 24.32 48.8775 24.32ZM72.4641 32C72.4641 27.52 72.4641 22.9867 72.4641 18.4C72.4641 13.8133 72.4641 9.28 72.4641 4.8C73.6374 4.8 74.8107 4.8 75.9841 4.8C77.1574 4.8 78.3174 4.8 79.4641 4.8C79.4641 9.28 79.4641 13.8133 79.4641 18.4C79.4641 22.9867 79.4641 27.52 79.4641 32C78.3174 32 77.1574 32 75.9841 32C74.8107 32 73.6374 32 72.4641 32ZM100.281 25.6C100.281 27.2533 99.8146 28.6133 98.8813 29.68C97.9746 30.72 96.7479 31.48 95.2013 31.96C93.6546 32.44 91.9213 32.64 90.0013 32.56C88.1079 32.5067 86.1746 32.2 84.2013 31.64C84.2013 30.6267 84.2013 29.5867 84.2013 28.52C84.2013 27.4533 84.2013 26.4133 84.2013 25.4C85.3213 25.9067 86.4413 26.3067 87.5612 26.6C88.6813 26.8667 89.6946 27.0267 90.6013 27.08C91.5079 27.1333 92.2413 27.0667 92.8013 26.88C93.3613 26.6667 93.6413 26.32 93.6413 25.84C93.6413 25.4667 93.4013 25.1733 92.9213 24.96C92.4679 24.7467 91.8679 24.56 91.1213 24.4C90.3746 24.2133 89.5746 24 88.7213 23.76C87.8946 23.4933 87.1079 23.1333 86.3613 22.68C85.6146 22.2 85.0013 21.5733 84.5213 20.8C84.0679 20 83.8413 18.9733 83.8413 17.72C83.8413 16.2267 84.2679 14.96 85.1213 13.92C86.0013 12.8533 87.1746 12.0533 88.6413 11.52C90.1079 10.96 91.7479 10.68 93.5613 10.68C95.3746 10.68 97.2279 10.9867 99.1213 11.6C99.1213 12.6133 99.1213 13.6533 99.1213 14.72C99.1213 15.7867 99.1213 16.8267 99.1213 17.84C97.6279 17.12 96.2279 16.64 94.9213 16.4C93.6146 16.16 92.5613 16.1333 91.7613 16.32C90.9613 16.48 90.5613 16.84 90.5613 17.4C90.5613 17.7733 90.7879 18.0667 91.2413 18.28C91.7213 18.4667 92.3213 18.64 93.0413 18.8C93.7879 18.96 94.5746 19.1733 95.4013 19.44C96.2546 19.7067 97.0413 20.08 97.7613 20.56C98.5079 21.0133 99.1079 21.6533 99.5613 22.48C100.041 23.28 100.281 24.32 100.281 25.6ZM103.666 32C103.666 27.1733 103.666 22.3067 103.666 17.4C103.666 12.4933 103.666 7.62667 103.666 2.8C104.759 2.8 105.866 2.8 106.986 2.8C108.106 2.8 109.199 2.8 110.266 2.8C110.266 7.62667 110.266 12.4933 110.266 17.4C110.266 22.3067 110.266 27.1733 110.266 32C109.199 32 108.106 32 106.986 32C105.866 32 104.759 32 103.666 32ZM128.672 32C128.672 31.7867 128.672 31.5867 128.672 31.4C128.672 31.1867 128.672 30.9867 128.672 30.8C128.005 31.36 127.245 31.7867 126.392 32.08C125.565 32.4 124.672 32.56 123.712 32.56C122.352 32.56 121.072 32.3067 119.872 31.8C118.672 31.2667 117.605 30.52 116.672 29.56C115.765 28.5733 115.045 27.4133 114.512 26.08C114.005 24.7467 113.752 23.2667 113.752 21.64C113.752 19.9867 114.005 18.4933 114.512 17.16C115.045 15.8267 115.765 14.6933 116.672 13.76C117.605 12.8 118.672 12.0667 119.872 11.56C121.072 11.0267 122.339 10.76 123.672 10.76C124.632 10.76 125.539 10.92 126.392 11.24C127.245 11.5333 128.005 11.9467 128.672 12.48C128.672 12.2667 128.672 12.0667 128.672 11.88C128.672 11.6933 128.672 11.5067 128.672 11.32C129.765 11.32 130.872 11.32 131.992 11.32C133.112 11.32 134.205 11.32 135.272 11.32C135.272 14.7333 135.272 18.1867 135.272 21.68C135.272 25.1467 135.272 28.5867 135.272 32C134.205 32 133.112 32 131.992 32C130.872 32 129.765 32 128.672 32ZM124.592 26.72C125.872 26.72 126.899 26.2533 127.672 25.32C128.445 24.3867 128.832 23.16 128.832 21.64C128.832 20.12 128.445 18.9067 127.672 18C126.899 17.0667 125.872 16.6 124.592 16.6C123.285 16.6 122.245 17.0533 121.472 17.96C120.725 18.8667 120.352 20.0933 120.352 21.64C120.352 23.1867 120.725 24.4267 121.472 25.36C122.245 26.2667 123.285 26.72 124.592 26.72ZM139.677 32C139.677 28.5867 139.677 25.1467 139.677 21.68C139.677 18.1867 139.677 14.7333 139.677 11.32C140.77 11.32 141.877 11.32 142.997 11.32C144.117 11.32 145.21 11.32 146.277 11.32C146.277 11.5067 146.277 11.68 146.277 11.84C146.277 12 146.277 12.1733 146.277 12.36C146.997 11.8533 147.797 11.4667 148.677 11.2C149.583 10.9067 150.557 10.76 151.597 10.76C153.117 10.76 154.45 11.1067 155.597 11.8C156.77 12.4933 157.677 13.4933 158.317 14.8C158.983 16.08 159.317 17.6267 159.317 19.44C159.317 21.52 159.317 23.6133 159.317 25.72C159.317 27.8267 159.317 29.92 159.317 32C158.25 32 157.157 32 156.037 32C154.917 32 153.81 32 152.717 32C152.717 30.08 152.717 28.1333 152.717 26.16C152.717 24.1867 152.717 22.24 152.717 20.32C152.717 19.2533 152.463 18.4 151.957 17.76C151.477 17.0933 150.703 16.76 149.637 16.76C148.57 16.76 147.743 17.0667 147.157 17.68C146.57 18.2933 146.277 19.1733 146.277 20.32C146.277 22.24 146.277 24.1867 146.277 26.16C146.277 28.1333 146.277 30.08 146.277 32C145.21 32 144.117 32 142.997 32C141.877 32 140.77 32 139.677 32ZM177.188 32C177.188 31.7867 177.188 31.5867 177.188 31.4C177.188 31.1867 177.188 30.9867 177.188 30.8C176.521 31.36 175.761 31.7867 174.908 32.08C174.081 32.4 173.188 32.56 172.228 32.56C170.868 32.56 169.588 32.2933 168.388 31.76C167.188 31.2267 166.121 30.48 165.188 29.52C164.281 28.5333 163.561 27.3733 163.028 26.04C162.521 24.7067 162.268 23.24 162.268 21.64C162.268 20.0133 162.521 18.5333 163.028 17.2C163.561 15.8667 164.281 14.72 165.188 13.76C166.121 12.8 167.188 12.0667 168.388 11.56C169.588 11.0267 170.854 10.76 172.188 10.76C173.148 10.76 174.054 10.92 174.908 11.24C175.761 11.5333 176.521 11.9467 177.188 12.48C177.188 10.88 177.188 9.26667 177.188 7.64C177.188 6.01333 177.188 4.4 177.188 2.8C178.281 2.8 179.388 2.8 180.508 2.8C181.628 2.8 182.721 2.8 183.787 2.8C183.787 7.62667 183.787 12.4933 183.787 17.4C183.787 22.3067 183.787 27.1733 183.787 32C182.721 32 181.628 32 180.508 32C179.388 32 178.281 32 177.188 32ZM173.108 26.72C174.388 26.72 175.414 26.2533 176.188 25.32C176.961 24.3867 177.348 23.16 177.348 21.64C177.348 20.12 176.961 18.9067 176.188 18C175.414 17.0667 174.388 16.6 173.108 16.6C171.801 16.6 170.761 17.0533 169.988 17.96C169.241 18.8667 168.868 20.0933 168.868 21.64C168.868 23.1867 169.241 24.4267 169.988 25.36C170.761 26.2667 171.801 26.72 173.108 26.72Z" fill="black"/>
</svg>
