<svg width="69" height="95" viewBox="0 0 69 95" fill="none" xmlns="http://www.w3.org/2000/svg">
<path d="M54.0226 20.5714C54.0226 30.8281 45.2922 39.1429 34.5226 39.1429C23.7531 39.1429 15.0226 30.8281 15.0226 20.5714C15.0226 10.3147 23.7531 2 34.5226 2C45.2922 2 54.0226 10.3147 54.0226 20.5714Z" fill="white" fill-opacity="0.5"/>
<path d="M34.5226 54C63.9251 54 66.7274 85.9202 66.9945 92.0047C67.0187 92.5565 66.5749 93 66.0226 93H3.02261C2.47033 93 2.02653 92.5565 2.05075 92.0047C2.31783 85.9202 5.12013 54 34.5226 54Z" fill="white" fill-opacity="0.5"/>
<path d="M54.0226 20.5714C54.0226 30.8281 45.2922 39.1429 34.5226 39.1429C23.7531 39.1429 15.0226 30.8281 15.0226 20.5714C15.0226 10.3147 23.7531 2 34.5226 2C45.2922 2 54.0226 10.3147 54.0226 20.5714Z" stroke="black" stroke-width="3" stroke-linecap="round"/>
<path d="M34.5226 54C63.9251 54 66.7274 85.9202 66.9945 92.0047C67.0187 92.5565 66.5749 93 66.0226 93H3.02261C2.47033 93 2.02653 92.5565 2.05075 92.0047C2.31783 85.9202 5.12013 54 34.5226 54Z" stroke="black" stroke-width="3" stroke-linecap="round"/>
</svg>
