<svg width="226" height="65" viewBox="0 0 226 65" fill="none" xmlns="http://www.w3.org/2000/svg">
<rect width="226" height="65" rx="17" fill="url(#paint0_linear_559_31)"/>
<path d="M64.08 42C63.008 40.096 61.848 38.216 60.6 36.36C59.352 34.504 58.024 32.752 56.616 31.104V42H52.92V25.368H55.968C56.496 25.896 57.08 26.544 57.72 27.312C58.36 28.08 59.008 28.904 59.664 29.784C60.336 30.648 61 31.552 61.656 32.496C62.312 33.424 62.928 34.32 63.504 35.184V25.368H67.224V42H64.08ZM70.2206 35.784C70.2206 34.664 70.3886 33.688 70.7246 32.856C71.0766 32.008 71.5326 31.304 72.0926 30.744C72.6526 30.184 73.2926 29.76 74.0126 29.472C74.7486 29.184 75.5006 29.04 76.2686 29.04C78.0606 29.04 79.4766 29.592 80.5166 30.696C81.5566 31.784 82.0766 33.392 82.0766 35.52C82.0766 35.728 82.0686 35.96 82.0526 36.216C82.0366 36.456 82.0206 36.672 82.0046 36.864H73.8926C73.9726 37.6 74.3166 38.184 74.9246 38.616C75.5326 39.048 76.3486 39.264 77.3726 39.264C78.0286 39.264 78.6686 39.208 79.2926 39.096C79.9326 38.968 80.4526 38.816 80.8526 38.64L81.3326 41.544C81.1406 41.64 80.8846 41.736 80.5646 41.832C80.2446 41.928 79.8846 42.008 79.4846 42.072C79.1006 42.152 78.6846 42.216 78.2366 42.264C77.7886 42.312 77.3406 42.336 76.8926 42.336C75.7566 42.336 74.7646 42.168 73.9166 41.832C73.0846 41.496 72.3886 41.04 71.8286 40.464C71.2846 39.872 70.8766 39.176 70.6046 38.376C70.3486 37.576 70.2206 36.712 70.2206 35.784ZM78.6206 34.416C78.6046 34.112 78.5486 33.816 78.4526 33.528C78.3726 33.24 78.2366 32.984 78.0446 32.76C77.8686 32.536 77.6366 32.352 77.3486 32.208C77.0766 32.064 76.7326 31.992 76.3166 31.992C75.9166 31.992 75.5726 32.064 75.2846 32.208C74.9966 32.336 74.7566 32.512 74.5646 32.736C74.3726 32.96 74.2206 33.224 74.1086 33.528C74.0126 33.816 73.9406 34.112 73.8926 34.416H78.6206ZM92.5163 34.752C92.1963 35.968 91.8523 37.176 91.4843 38.376C91.1323 39.576 90.7563 40.784 90.3563 42H87.5723C87.2843 41.328 86.9723 40.528 86.6363 39.6C86.3003 38.672 85.9483 37.664 85.5803 36.576C85.2283 35.472 84.8603 34.312 84.4763 33.096C84.1083 31.864 83.7483 30.624 83.3963 29.376H87.1643C87.2923 29.952 87.4283 30.584 87.5723 31.272C87.7323 31.944 87.8923 32.64 88.0523 33.36C88.2283 34.08 88.4043 34.808 88.5803 35.544C88.7723 36.264 88.9643 36.96 89.1562 37.632C89.3643 36.928 89.5643 36.208 89.7563 35.472C89.9643 34.736 90.1563 34.016 90.3323 33.312C90.5243 32.592 90.7003 31.904 90.8603 31.248C91.0363 30.576 91.1883 29.952 91.3163 29.376H93.9083C94.0363 29.952 94.1803 30.576 94.3403 31.248C94.5003 31.904 94.6683 32.592 94.8443 33.312C95.0203 34.016 95.2043 34.736 95.3963 35.472C95.5883 36.208 95.7883 36.928 95.9963 37.632C96.1883 36.96 96.3803 36.264 96.5723 35.544C96.7643 34.808 96.9403 34.08 97.1003 33.36C97.2763 32.64 97.4363 31.944 97.5803 31.272C97.7403 30.584 97.8843 29.952 98.0123 29.376H101.732C101.38 30.624 101.012 31.864 100.628 33.096C100.26 34.312 99.8923 35.472 99.5243 36.576C99.1723 37.664 98.8203 38.672 98.4683 39.6C98.1323 40.528 97.8203 41.328 97.5323 42H94.7483C94.3483 40.784 93.9563 39.576 93.5723 38.376C93.1883 37.176 92.8363 35.968 92.5163 34.752ZM120.798 42C120.622 41.424 120.422 40.832 120.198 40.224C119.99 39.616 119.782 39.008 119.574 38.4H113.094C112.886 39.008 112.67 39.616 112.446 40.224C112.238 40.832 112.046 41.424 111.87 42H107.982C108.606 40.208 109.198 38.552 109.758 37.032C110.318 35.512 110.862 34.08 111.39 32.736C111.934 31.392 112.462 30.12 112.974 28.92C113.502 27.704 114.046 26.52 114.606 25.368H118.182C118.726 26.52 119.262 27.704 119.79 28.92C120.318 30.12 120.846 31.392 121.374 32.736C121.918 34.08 122.47 35.512 123.03 37.032C123.59 38.552 124.182 40.208 124.806 42H120.798ZM116.31 29.136C116.23 29.376 116.11 29.704 115.95 30.12C115.79 30.536 115.606 31.016 115.398 31.56C115.19 32.104 114.958 32.704 114.702 33.36C114.462 34.016 114.214 34.704 113.958 35.424H118.686C118.43 34.704 118.182 34.016 117.942 33.36C117.702 32.704 117.47 32.104 117.246 31.56C117.038 31.016 116.854 30.536 116.694 30.12C116.534 29.704 116.406 29.376 116.31 29.136ZM134.807 35.784C134.807 34.68 134.559 33.8 134.063 33.144C133.567 32.472 132.831 32.136 131.855 32.136C131.535 32.136 131.239 32.152 130.967 32.184C130.695 32.2 130.471 32.224 130.295 32.256V38.712C130.519 38.856 130.807 38.976 131.159 39.072C131.527 39.168 131.895 39.216 132.263 39.216C133.959 39.216 134.807 38.072 134.807 35.784ZM138.455 35.688C138.455 36.664 138.335 37.552 138.095 38.352C137.855 39.152 137.503 39.84 137.039 40.416C136.575 40.992 135.999 41.44 135.311 41.76C134.623 42.08 133.831 42.24 132.935 42.24C132.439 42.24 131.975 42.192 131.543 42.096C131.111 42 130.695 41.864 130.295 41.688V46.44H126.719V29.808C127.039 29.712 127.407 29.624 127.823 29.544C128.239 29.448 128.671 29.368 129.119 29.304C129.583 29.24 130.047 29.192 130.511 29.16C130.991 29.112 131.447 29.088 131.879 29.088C132.919 29.088 133.847 29.248 134.663 29.568C135.479 29.872 136.167 30.312 136.727 30.888C137.287 31.448 137.711 32.136 137.999 32.952C138.303 33.768 138.455 34.68 138.455 35.688ZM149.291 35.784C149.291 34.68 149.043 33.8 148.547 33.144C148.051 32.472 147.315 32.136 146.339 32.136C146.019 32.136 145.723 32.152 145.451 32.184C145.179 32.2 144.955 32.224 144.779 32.256V38.712C145.003 38.856 145.291 38.976 145.643 39.072C146.011 39.168 146.379 39.216 146.747 39.216C148.443 39.216 149.291 38.072 149.291 35.784ZM152.939 35.688C152.939 36.664 152.819 37.552 152.579 38.352C152.339 39.152 151.987 39.84 151.523 40.416C151.059 40.992 150.483 41.44 149.795 41.76C149.107 42.08 148.315 42.24 147.419 42.24C146.923 42.24 146.459 42.192 146.027 42.096C145.595 42 145.179 41.864 144.779 41.688V46.44H141.203V29.808C141.523 29.712 141.891 29.624 142.307 29.544C142.723 29.448 143.155 29.368 143.603 29.304C144.067 29.24 144.531 29.192 144.995 29.16C145.475 29.112 145.931 29.088 146.363 29.088C147.403 29.088 148.331 29.248 149.147 29.568C149.963 29.872 150.651 30.312 151.211 30.888C151.771 31.448 152.195 32.136 152.483 32.952C152.787 33.768 152.939 34.68 152.939 35.688ZM160.728 42.24C159.688 42.224 158.84 42.112 158.184 41.904C157.544 41.696 157.032 41.408 156.648 41.04C156.28 40.656 156.024 40.2 155.88 39.672C155.752 39.128 155.688 38.52 155.688 37.848V23.952L159.264 23.376V37.128C159.264 37.448 159.288 37.736 159.336 37.992C159.384 38.248 159.472 38.464 159.6 38.64C159.744 38.816 159.944 38.96 160.2 39.072C160.456 39.184 160.8 39.256 161.232 39.288L160.728 42.24ZM174.232 29.376C173.512 31.808 172.76 34.088 171.976 36.216C171.192 38.344 170.336 40.408 169.408 42.408C169.072 43.128 168.736 43.736 168.4 44.232C168.064 44.744 167.696 45.16 167.296 45.48C166.896 45.816 166.44 46.056 165.928 46.2C165.432 46.36 164.848 46.44 164.176 46.44C163.616 46.44 163.096 46.384 162.616 46.272C162.152 46.176 161.768 46.064 161.464 45.936L162.088 43.08C162.456 43.208 162.784 43.296 163.072 43.344C163.36 43.392 163.664 43.416 163.984 43.416C164.624 43.416 165.112 43.24 165.448 42.888C165.8 42.552 166.096 42.08 166.336 41.472C165.52 39.872 164.704 38.08 163.888 36.096C163.072 34.096 162.304 31.856 161.584 29.376H165.376C165.536 30 165.72 30.68 165.928 31.416C166.152 32.136 166.384 32.872 166.624 33.624C166.864 34.36 167.104 35.08 167.344 35.784C167.6 36.488 167.84 37.128 168.064 37.704C168.272 37.128 168.488 36.488 168.712 35.784C168.936 35.08 169.152 34.36 169.36 33.624C169.584 32.872 169.792 32.136 169.984 31.416C170.192 30.68 170.376 30 170.536 29.376H174.232Z" fill="white"/>
<defs>
<linearGradient id="paint0_linear_559_31" x1="226" y1="33" x2="0.203605" y2="39.7803" gradientUnits="userSpaceOnUse">
<stop stop-color="#3D97D8"/>
<stop offset="0.416667" stop-color="#42D7A1"/>
<stop offset="0.739583" stop-color="#9FEB3F"/>
<stop offset="1" stop-color="#FFDE60"/>
</linearGradient>
</defs>
</svg>
