<svg width="589" height="123" viewBox="0 0 589 123" fill="none" xmlns="http://www.w3.org/2000/svg">
<path d="M75.5918 95.392C66.7171 98.976 58.4398 101.024 50.7598 101.536C43.1651 102.133 36.2958 101.451 30.1518 99.488C24.0078 97.44 18.7598 94.368 14.4078 90.272C10.0558 86.176 6.72777 81.312 4.42377 75.68C2.11977 70.048 0.967773 63.904 0.967773 57.248C0.967773 50.6773 2.03444 44.6186 4.16777 39.072C6.30111 33.44 9.41577 28.576 13.5118 24.48C17.6931 20.384 22.7278 17.184 28.6158 14.88C34.5038 12.576 41.2024 11.4666 48.7118 11.552C56.2211 11.552 64.4558 12.9173 73.4158 15.648C73.4158 19.232 73.4158 22.8586 73.4158 26.528C73.4158 30.112 73.4158 33.696 73.4158 37.28C66.3331 34.464 59.7624 32.8426 53.7038 32.416C47.7304 31.9893 42.4824 32.6293 37.9598 34.336C33.5224 36.0426 30.0238 38.7733 27.4638 42.528C24.9891 46.1973 23.7518 50.8053 23.7518 56.352C23.7518 61.216 24.6478 65.5253 26.4398 69.28C28.3171 73.0346 30.9198 75.9786 34.2478 78.112C37.5758 80.2453 41.3731 81.312 45.6398 81.312C47.0904 81.312 48.5411 81.2693 49.9918 81.184C51.4424 81.0133 52.8504 80.7573 54.2158 80.416C54.2158 78.1973 54.2158 75.936 54.2158 73.632C54.2158 71.328 54.2158 69.0666 54.2158 66.848C51.8264 66.848 49.4371 66.848 47.0478 66.848C44.6584 66.848 42.2691 66.848 39.8798 66.848C39.8798 63.6906 39.8798 60.5333 39.8798 57.376C39.8798 54.1333 39.8798 50.9333 39.8798 47.776C45.7678 47.776 51.6984 47.776 57.6718 47.776C63.7304 47.776 69.7038 47.776 75.5918 47.776C75.5918 55.6266 75.5918 63.5626 75.5918 71.584C75.5918 79.6053 75.5918 87.5413 75.5918 95.392Z" fill="black"/>
<path d="M101.804 26.272C99.3291 26.272 97.0678 25.6746 95.0198 24.48C93.0571 23.2853 91.4784 21.7066 90.2838 19.744C89.0891 17.7813 88.4918 15.6053 88.4918 13.216C88.4918 10.8266 89.0891 8.6933 90.2838 6.81596C91.4784 4.8533 93.0571 3.27463 95.0198 2.07996C97.0678 0.885297 99.3291 0.287964 101.804 0.287964C104.193 0.287964 106.369 0.885297 108.332 2.07996C110.38 3.27463 112.001 4.8533 113.196 6.81596C114.39 8.6933 114.988 10.8266 114.988 13.216C114.988 15.6053 114.39 17.7813 113.196 19.744C112.001 21.7066 110.38 23.2853 108.332 24.48C106.369 25.6746 104.193 26.272 101.804 26.272ZM91.1798 100C91.1798 89.0773 91.1798 78.0693 91.1798 66.976C91.1798 55.7973 91.1798 44.7466 91.1798 33.824C94.6784 33.824 98.2198 33.824 101.804 33.824C105.388 33.824 108.886 33.824 112.3 33.824C112.3 44.7466 112.3 55.7973 112.3 66.976C112.3 78.0693 112.3 89.0773 112.3 100C108.886 100 105.388 100 101.804 100C98.2198 100 94.6784 100 91.1798 100Z" fill="black"/>
<path d="M189.248 89.248C189.248 96.5013 187.669 102.56 184.512 107.424C181.44 112.288 177.216 115.915 171.84 118.304C166.464 120.779 160.32 122.059 153.408 122.144C146.581 122.229 139.37 121.205 131.776 119.072C131.776 115.744 131.776 112.373 131.776 108.96C131.776 105.632 131.776 102.304 131.776 98.976C138.517 101.621 144.618 102.944 150.08 102.944C155.541 103.029 159.85 102.005 163.008 99.872C166.25 97.6533 167.872 94.624 167.872 90.784C167.872 90.3573 167.872 89.9733 167.872 89.632C167.872 89.2053 167.872 88.8213 167.872 88.48C165.738 90.1013 163.264 91.3813 160.448 92.32C157.632 93.2586 154.602 93.728 151.36 93.728C145.984 93.728 141.162 92.4906 136.896 90.016C132.714 87.456 129.429 83.9573 127.04 79.52C124.65 74.9973 123.456 69.7493 123.456 63.776C123.456 59.168 124.224 54.944 125.76 51.104C127.296 47.264 129.429 43.936 132.16 41.12C134.89 38.304 138.005 36.1706 141.504 34.72C145.002 33.184 148.672 32.416 152.512 32.416C155.584 32.416 158.442 32.8426 161.088 33.696C163.733 34.5493 166.08 35.7013 168.128 37.152C168.128 36.5546 168.128 36 168.128 35.488C168.128 34.976 168.128 34.4213 168.128 33.824C171.626 33.824 175.168 33.824 178.752 33.824C182.336 33.824 185.834 33.824 189.248 33.824C189.248 42.9546 189.248 52.2133 189.248 61.6C189.248 70.9013 189.248 80.1173 189.248 89.248ZM156.608 75.424C160.192 75.424 163.05 74.3146 165.184 72.096C167.402 69.792 168.512 66.848 168.512 63.264C168.512 59.5946 167.402 56.608 165.184 54.304C163.05 52 160.192 50.848 156.608 50.848C152.853 50.848 149.866 52 147.648 54.304C145.429 56.5226 144.32 59.5093 144.32 63.264C144.32 66.9333 145.429 69.8773 147.648 72.096C149.866 74.3146 152.853 75.424 156.608 75.424Z" fill="black"/>
<path d="M232.085 100C232.085 85.664 232.085 71.1573 232.085 56.48C232.085 41.8026 232.085 27.296 232.085 12.96C235.839 12.96 239.594 12.96 243.349 12.96C247.103 12.96 250.815 12.96 254.485 12.96C254.485 27.296 254.485 41.8026 254.485 56.48C254.485 71.1573 254.485 85.664 254.485 100C250.815 100 247.103 100 243.349 100C239.594 100 235.839 100 232.085 100Z" fill="black"/>
<path d="M321.1 79.52C321.1 84.8106 319.606 89.1626 316.62 92.576C313.718 95.904 309.793 98.336 304.844 99.872C299.894 101.408 294.348 102.048 288.204 101.792C282.145 101.621 275.958 100.64 269.644 98.848C269.644 95.6053 269.644 92.2773 269.644 88.864C269.644 85.4506 269.644 82.1226 269.644 78.88C273.228 80.5013 276.812 81.7813 280.396 82.72C283.98 83.5733 287.222 84.0853 290.124 84.256C293.025 84.4266 295.372 84.2133 297.164 83.616C298.956 82.9333 299.852 81.824 299.852 80.288C299.852 79.0933 299.084 78.1546 297.548 77.472C296.097 76.7893 294.177 76.192 291.788 75.68C289.398 75.0826 286.838 74.4 284.108 73.632C281.462 72.7786 278.945 71.6266 276.556 70.176C274.166 68.64 272.204 66.6346 270.668 64.16C269.217 61.6 268.492 58.3146 268.492 54.304C268.492 49.5253 269.857 45.472 272.588 42.144C275.404 38.7306 279.158 36.1706 283.852 34.464C288.545 32.672 293.793 31.776 299.596 31.776C305.398 31.776 311.329 32.7573 317.388 34.72C317.388 37.9626 317.388 41.2906 317.388 44.704C317.388 48.1173 317.388 51.4453 317.388 54.688C312.609 52.384 308.129 50.848 303.948 50.08C299.766 49.312 296.396 49.2266 293.836 49.824C291.276 50.336 289.996 51.488 289.996 53.28C289.996 54.4746 290.721 55.4133 292.172 56.096C293.708 56.6933 295.628 57.248 297.932 57.76C300.321 58.272 302.838 58.9546 305.484 59.808C308.214 60.6613 310.732 61.856 313.036 63.392C315.425 64.8426 317.345 66.8906 318.796 69.536C320.332 72.096 321.1 75.424 321.1 79.52Z" fill="black"/>
<path d="M331.93 100C331.93 84.5546 331.93 68.9813 331.93 53.28C331.93 37.5786 331.93 22.0053 331.93 6.55997C335.428 6.55997 338.97 6.55997 342.554 6.55997C346.138 6.55997 349.636 6.55997 353.05 6.55997C353.05 22.0053 353.05 37.5786 353.05 53.28C353.05 68.9813 353.05 84.5546 353.05 100C349.636 100 346.138 100 342.554 100C338.97 100 335.428 100 331.93 100Z" fill="black"/>
<path d="M411.95 100C411.95 99.3173 411.95 98.6773 411.95 98.08C411.95 97.3973 411.95 96.7573 411.95 96.16C409.816 97.952 407.384 99.3173 404.654 100.256C402.008 101.28 399.15 101.792 396.078 101.792C391.726 101.792 387.63 100.981 383.79 99.36C379.95 97.6533 376.536 95.264 373.55 92.192C370.648 89.0346 368.344 85.3226 366.638 81.056C365.016 76.7893 364.206 72.0533 364.206 66.848C364.206 61.5573 365.016 56.7786 366.638 52.512C368.344 48.2453 370.648 44.6186 373.55 41.632C376.536 38.56 379.95 36.2133 383.79 34.592C387.63 32.8853 391.683 32.032 395.95 32.032C399.022 32.032 401.923 32.544 404.654 33.568C407.384 34.5066 409.816 35.8293 411.95 37.536C411.95 36.8533 411.95 36.2133 411.95 35.616C411.95 35.0186 411.95 34.4213 411.95 33.824C415.448 33.824 418.99 33.824 422.574 33.824C426.158 33.824 429.656 33.824 433.07 33.824C433.07 44.7466 433.07 55.7973 433.07 66.976C433.07 78.0693 433.07 89.0773 433.07 100C429.656 100 426.158 100 422.574 100C418.99 100 415.448 100 411.95 100ZM398.894 83.104C402.99 83.104 406.275 81.6106 408.75 78.624C411.224 75.6373 412.462 71.712 412.462 66.848C412.462 61.984 411.224 58.1013 408.75 55.2C406.275 52.2133 402.99 50.72 398.894 50.72C394.712 50.72 391.384 52.1706 388.91 55.072C386.52 57.9733 385.326 61.8986 385.326 66.848C385.326 71.7973 386.52 75.7653 388.91 78.752C391.384 81.6533 394.712 83.104 398.894 83.104Z" fill="black"/>
<path d="M447.165 100C447.165 89.0773 447.165 78.0693 447.165 66.976C447.165 55.7973 447.165 44.7466 447.165 33.824C450.663 33.824 454.205 33.824 457.789 33.824C461.373 33.824 464.871 33.824 468.285 33.824C468.285 34.4213 468.285 34.976 468.285 35.488C468.285 36 468.285 36.5546 468.285 37.152C470.589 35.5306 473.149 34.2933 475.965 33.44C478.866 32.5013 481.981 32.032 485.309 32.032C490.173 32.032 494.439 33.1413 498.109 35.36C501.863 37.5786 504.765 40.7786 506.813 44.96C508.946 49.056 510.013 54.0053 510.013 59.808C510.013 66.464 510.013 73.1626 510.013 79.904C510.013 86.6453 510.013 93.344 510.013 100C506.599 100 503.101 100 499.517 100C495.933 100 492.391 100 488.893 100C488.893 93.856 488.893 87.6266 488.893 81.312C488.893 74.9973 488.893 68.768 488.893 62.624C488.893 59.2106 488.082 56.48 486.461 54.432C484.925 52.2986 482.45 51.232 479.037 51.232C475.623 51.232 472.978 52.2133 471.101 54.176C469.223 56.1386 468.285 58.9546 468.285 62.624C468.285 68.768 468.285 74.9973 468.285 81.312C468.285 87.6266 468.285 93.856 468.285 100C464.871 100 461.373 100 457.789 100C454.205 100 450.663 100 447.165 100Z" fill="black"/>
<path d="M567.2 100C567.2 99.3173 567.2 98.6773 567.2 98.08C567.2 97.3973 567.2 96.7573 567.2 96.16C565.066 97.952 562.634 99.3173 559.904 100.256C557.258 101.28 554.4 101.792 551.328 101.792C546.976 101.792 542.88 100.939 539.04 99.232C535.2 97.5253 531.786 95.136 528.8 92.064C525.898 88.9066 523.594 85.1946 521.888 80.928C520.266 76.6613 519.456 71.968 519.456 66.848C519.456 61.6426 520.266 56.9066 521.888 52.64C523.594 48.3733 525.898 44.704 528.8 41.632C531.786 38.56 535.2 36.2133 539.04 34.592C542.88 32.8853 546.933 32.032 551.2 32.032C554.272 32.032 557.173 32.544 559.904 33.568C562.634 34.5066 565.066 35.8293 567.2 37.536C567.2 32.416 567.2 27.2533 567.2 22.048C567.2 16.8426 567.2 11.68 567.2 6.55997C570.698 6.55997 574.24 6.55997 577.824 6.55997C581.408 6.55997 584.906 6.55997 588.32 6.55997C588.32 22.0053 588.32 37.5786 588.32 53.28C588.32 68.9813 588.32 84.5546 588.32 100C584.906 100 581.408 100 577.824 100C574.24 100 570.698 100 567.2 100ZM554.144 83.104C558.24 83.104 561.525 81.6106 564 78.624C566.474 75.6373 567.712 71.712 567.712 66.848C567.712 61.984 566.474 58.1013 564 55.2C561.525 52.2133 558.24 50.72 554.144 50.72C549.962 50.72 546.634 52.1706 544.16 55.072C541.77 57.9733 540.576 61.8986 540.576 66.848C540.576 71.7973 541.77 75.7653 544.16 78.752C546.634 81.6533 549.962 83.104 554.144 83.104Z" fill="black"/>
</svg>
