<svg width="288" height="52" viewBox="0 0 288 52" fill="none" xmlns="http://www.w3.org/2000/svg">
<path d="M11.448 7.824C11.832 8.528 12.2693 9.40267 12.76 10.448C13.272 11.472 13.7947 12.592 14.328 13.808C14.8827 15.0027 15.4267 16.2293 15.96 17.488C16.4933 18.7467 16.9947 19.9307 17.464 21.04C17.9333 19.9307 18.4347 18.7467 18.968 17.488C19.5013 16.2293 20.0347 15.0027 20.568 13.808C21.1227 12.592 21.6453 11.472 22.136 10.448C22.648 9.40267 23.096 8.528 23.48 7.824H28.024C28.2373 9.296 28.4293 10.9493 28.6 12.784C28.792 14.5973 28.952 16.496 29.08 18.48C29.2293 20.4427 29.3573 22.416 29.464 24.4C29.592 26.384 29.6987 28.2507 29.784 30H24.92C24.856 27.8453 24.7707 25.4987 24.664 22.96C24.5573 20.4213 24.3973 17.8613 24.184 15.28C23.8 16.176 23.3733 17.168 22.904 18.256C22.4347 19.344 21.9653 20.432 21.496 21.52C21.048 22.608 20.6107 23.6533 20.184 24.656C19.7573 25.6373 19.3947 26.48 19.096 27.184H15.608C15.3093 26.48 14.9467 25.6373 14.52 24.656C14.0933 23.6533 13.6453 22.608 13.176 21.52C12.728 20.432 12.2693 19.344 11.8 18.256C11.3307 17.168 10.904 16.176 10.52 15.28C10.3067 17.8613 10.1467 20.4213 10.04 22.96C9.93333 25.4987 9.848 27.8453 9.784 30H4.92C5.00533 28.2507 5.10133 26.384 5.208 24.4C5.336 22.416 5.464 20.4427 5.592 18.48C5.74133 16.496 5.90133 14.5973 6.072 12.784C6.264 10.9493 6.46667 9.296 6.68 7.824H11.448ZM48.9028 13.168C47.9428 16.4107 46.9401 19.4507 45.8948 22.288C44.8494 25.1253 43.7081 27.8773 42.4708 30.544C42.0228 31.504 41.5748 32.3147 41.1267 32.976C40.6788 33.6587 40.1881 34.2133 39.6548 34.64C39.1214 35.088 38.5134 35.408 37.8308 35.6C37.1694 35.8133 36.3908 35.92 35.4948 35.92C34.7481 35.92 34.0548 35.8453 33.4148 35.696C32.7961 35.568 32.2841 35.4187 31.8788 35.248L32.7108 31.44C33.2014 31.6107 33.6388 31.728 34.0228 31.792C34.4068 31.856 34.8121 31.888 35.2388 31.888C36.0921 31.888 36.7428 31.6533 37.1908 31.184C37.6601 30.736 38.0548 30.1067 38.3748 29.296C37.2868 27.1627 36.1988 24.7733 35.1108 22.128C34.0228 19.4613 32.9988 16.4747 32.0388 13.168H37.0948C37.3081 14 37.5534 14.9067 37.8308 15.888C38.1294 16.848 38.4388 17.8293 38.7588 18.832C39.0788 19.8133 39.3988 20.7733 39.7188 21.712C40.0601 22.6507 40.3801 23.504 40.6788 24.272C40.9561 23.504 41.2441 22.6507 41.5428 21.712C41.8414 20.7733 42.1294 19.8133 42.4068 18.832C42.7054 17.8293 42.9828 16.848 43.2388 15.888C43.5161 14.9067 43.7614 14 43.9748 13.168H48.9028ZM74.3463 30C72.9169 27.4613 71.3703 24.9547 69.7063 22.48C68.0423 20.0053 66.2716 17.6693 64.3943 15.472V30H59.4663V7.824H63.5303C64.2343 8.528 65.0129 9.392 65.8663 10.416C66.7196 11.44 67.5836 12.5387 68.4583 13.712C69.3543 14.864 70.2396 16.0693 71.1143 17.328C71.9889 18.5653 72.8103 19.76 73.5783 20.912V7.824H78.5383V30H74.3463ZM83.6538 30V7.824H98.5018V12.016H88.6458V16.656H97.4138V20.848H88.6458V30H83.6538ZM119.164 7.824V12.08H112.476V30H107.484V12.08H100.796V7.824H119.164ZM140.172 30.448C136.567 30.448 133.815 29.4453 131.916 27.44C130.039 25.4347 129.1 22.5867 129.1 18.896C129.1 17.0613 129.388 15.4293 129.964 14C130.54 12.5493 131.329 11.3333 132.332 10.352C133.335 9.34933 134.529 8.592 135.916 8.08C137.303 7.568 138.807 7.312 140.428 7.312C141.367 7.312 142.22 7.38667 142.988 7.536C143.756 7.664 144.428 7.824 145.004 8.016C145.58 8.18667 146.06 8.368 146.444 8.56C146.828 8.752 147.105 8.90133 147.276 9.008L145.836 13.04C145.153 12.6773 144.353 12.368 143.436 12.112C142.54 11.856 141.516 11.728 140.364 11.728C139.596 11.728 138.839 11.856 138.092 12.112C137.367 12.368 136.716 12.784 136.14 13.36C135.585 13.9147 135.137 14.64 134.796 15.536C134.455 16.432 134.284 17.52 134.284 18.8C134.284 19.824 134.391 20.784 134.604 21.68C134.839 22.5547 135.201 23.312 135.692 23.952C136.204 24.592 136.865 25.104 137.676 25.488C138.487 25.8507 139.468 26.032 140.62 26.032C141.345 26.032 141.996 25.9893 142.572 25.904C143.148 25.8187 143.66 25.7227 144.108 25.616C144.556 25.488 144.951 25.3493 145.292 25.2C145.633 25.0507 145.943 24.912 146.22 24.784L147.596 28.784C146.892 29.2107 145.9 29.5947 144.62 29.936C143.34 30.2773 141.857 30.448 140.172 30.448ZM165.859 21.552C165.859 22.8747 165.667 24.0907 165.283 25.2C164.899 26.288 164.344 27.2267 163.619 28.016C162.894 28.784 162.019 29.3813 160.995 29.808C159.992 30.2347 158.862 30.448 157.603 30.448C156.366 30.448 155.235 30.2347 154.211 29.808C153.208 29.3813 152.344 28.784 151.619 28.016C150.894 27.2267 150.328 26.288 149.923 25.2C149.518 24.0907 149.315 22.8747 149.315 21.552C149.315 20.2293 149.518 19.024 149.923 17.936C150.35 16.848 150.926 15.92 151.651 15.152C152.398 14.384 153.272 13.7867 154.275 13.36C155.299 12.9333 156.408 12.72 157.603 12.72C158.819 12.72 159.928 12.9333 160.931 13.36C161.955 13.7867 162.83 14.384 163.555 15.152C164.28 15.92 164.846 16.848 165.251 17.936C165.656 19.024 165.859 20.2293 165.859 21.552ZM160.995 21.552C160.995 20.08 160.696 18.928 160.099 18.096C159.523 17.2427 158.691 16.816 157.603 16.816C156.515 16.816 155.672 17.2427 155.075 18.096C154.478 18.928 154.179 20.08 154.179 21.552C154.179 23.024 154.478 24.1973 155.075 25.072C155.672 25.9253 156.515 26.352 157.603 26.352C158.691 26.352 159.523 25.9253 160.099 25.072C160.696 24.1973 160.995 23.024 160.995 21.552ZM176.273 30.32C174.886 30.2987 173.755 30.1493 172.881 29.872C172.027 29.5947 171.345 29.2107 170.833 28.72C170.342 28.208 170.001 27.6 169.809 26.896C169.638 26.1707 169.553 25.36 169.553 24.464V5.936L174.321 5.168V23.504C174.321 23.9307 174.353 24.3147 174.417 24.656C174.481 24.9973 174.598 25.2853 174.769 25.52C174.961 25.7547 175.227 25.9467 175.569 26.096C175.91 26.2453 176.369 26.3413 176.945 26.384L176.273 30.32ZM186.398 30.32C185.011 30.2987 183.88 30.1493 183.006 29.872C182.152 29.5947 181.47 29.2107 180.958 28.72C180.467 28.208 180.126 27.6 179.934 26.896C179.763 26.1707 179.678 25.36 179.678 24.464V5.936L184.446 5.168V23.504C184.446 23.9307 184.478 24.3147 184.542 24.656C184.606 24.9973 184.723 25.2853 184.894 25.52C185.086 25.7547 185.352 25.9467 185.694 26.096C186.035 26.2453 186.494 26.3413 187.07 26.384L186.398 30.32ZM189.003 21.712C189.003 20.2187 189.227 18.9173 189.674 17.808C190.144 16.6773 190.752 15.7387 191.499 14.992C192.245 14.2453 193.099 13.68 194.059 13.296C195.04 12.912 196.043 12.72 197.067 12.72C199.456 12.72 201.344 13.456 202.731 14.928C204.117 16.3787 204.811 18.5227 204.811 21.36C204.811 21.6373 204.8 21.9467 204.779 22.288C204.757 22.608 204.736 22.896 204.715 23.152H193.899C194.005 24.1333 194.464 24.912 195.275 25.488C196.085 26.064 197.173 26.352 198.539 26.352C199.413 26.352 200.267 26.2773 201.099 26.128C201.952 25.9573 202.645 25.7547 203.179 25.52L203.819 29.392C203.563 29.52 203.221 29.648 202.795 29.776C202.368 29.904 201.888 30.0107 201.355 30.096C200.843 30.2027 200.288 30.288 199.691 30.352C199.093 30.416 198.496 30.448 197.899 30.448C196.384 30.448 195.061 30.224 193.931 29.776C192.821 29.328 191.893 28.72 191.147 27.952C190.421 27.1627 189.877 26.2347 189.515 25.168C189.173 24.1013 189.003 22.9493 189.003 21.712ZM200.203 19.888C200.181 19.4827 200.107 19.088 199.979 18.704C199.872 18.32 199.691 17.9787 199.435 17.68C199.2 17.3813 198.891 17.136 198.507 16.944C198.144 16.752 197.685 16.656 197.131 16.656C196.597 16.656 196.139 16.752 195.755 16.944C195.371 17.1147 195.051 17.3493 194.795 17.648C194.539 17.9467 194.336 18.2987 194.187 18.704C194.059 19.088 193.963 19.4827 193.899 19.888H200.203ZM207.69 21.584C207.69 20.368 207.882 19.2267 208.266 18.16C208.671 17.072 209.247 16.1333 209.994 15.344C210.741 14.5333 211.647 13.8933 212.714 13.424C213.781 12.9547 214.997 12.72 216.362 12.72C217.258 12.72 218.079 12.8053 218.826 12.976C219.573 13.1253 220.298 13.3493 221.002 13.648L220.01 17.456C219.562 17.2853 219.071 17.136 218.538 17.008C218.005 16.88 217.407 16.816 216.746 16.816C215.338 16.816 214.282 17.2533 213.578 18.128C212.895 19.0027 212.554 20.1547 212.554 21.584C212.554 23.0987 212.874 24.272 213.514 25.104C214.175 25.936 215.317 26.352 216.938 26.352C217.514 26.352 218.133 26.2987 218.794 26.192C219.455 26.0853 220.063 25.9147 220.618 25.68L221.29 29.584C220.735 29.8187 220.042 30.0213 219.21 30.192C218.378 30.3627 217.461 30.448 216.458 30.448C214.922 30.448 213.599 30.224 212.49 29.776C211.381 29.3067 210.463 28.6773 209.738 27.888C209.034 27.0987 208.511 26.1707 208.17 25.104C207.85 24.016 207.69 22.8427 207.69 21.584ZM224.33 8.976L229.098 8.208V13.168H234.826V17.136H229.098V23.056C229.098 24.0587 229.269 24.8587 229.61 25.456C229.973 26.0533 230.687 26.352 231.754 26.352C232.266 26.352 232.789 26.3093 233.322 26.224C233.877 26.1173 234.378 25.9787 234.826 25.808L235.498 29.52C234.922 29.7547 234.282 29.9573 233.578 30.128C232.874 30.2987 232.01 30.384 230.986 30.384C229.685 30.384 228.607 30.2133 227.754 29.872C226.901 29.5093 226.218 29.0187 225.706 28.4C225.194 27.76 224.831 26.992 224.618 26.096C224.426 25.2 224.33 24.208 224.33 23.12V8.976ZM243.477 30H238.709V13.168H243.477V30ZM243.925 8.304C243.925 9.17867 243.637 9.872 243.061 10.384C242.506 10.8747 241.845 11.12 241.077 11.12C240.309 11.12 239.637 10.8747 239.061 10.384C238.506 9.872 238.229 9.17867 238.229 8.304C238.229 7.42933 238.506 6.74667 239.061 6.256C239.637 5.744 240.309 5.488 241.077 5.488C241.845 5.488 242.506 5.744 243.061 6.256C243.637 6.74667 243.925 7.42933 243.925 8.304ZM263.703 21.552C263.703 22.8747 263.511 24.0907 263.127 25.2C262.743 26.288 262.188 27.2267 261.463 28.016C260.737 28.784 259.863 29.3813 258.839 29.808C257.836 30.2347 256.705 30.448 255.447 30.448C254.209 30.448 253.079 30.2347 252.055 29.808C251.052 29.3813 250.188 28.784 249.463 28.016C248.737 27.2267 248.172 26.288 247.767 25.2C247.361 24.0907 247.159 22.8747 247.159 21.552C247.159 20.2293 247.361 19.024 247.767 17.936C248.193 16.848 248.769 15.92 249.495 15.152C250.241 14.384 251.116 13.7867 252.119 13.36C253.143 12.9333 254.252 12.72 255.447 12.72C256.663 12.72 257.772 12.9333 258.775 13.36C259.799 13.7867 260.673 14.384 261.399 15.152C262.124 15.92 262.689 16.848 263.095 17.936C263.5 19.024 263.703 20.2293 263.703 21.552ZM258.839 21.552C258.839 20.08 258.54 18.928 257.943 18.096C257.367 17.2427 256.535 16.816 255.447 16.816C254.359 16.816 253.516 17.2427 252.919 18.096C252.321 18.928 252.023 20.08 252.023 21.552C252.023 23.024 252.321 24.1973 252.919 25.072C253.516 25.9253 254.359 26.352 255.447 26.352C256.535 26.352 257.367 25.9253 257.943 25.072C258.54 24.1973 258.839 23.024 258.839 21.552ZM267.396 13.744C268.207 13.5093 269.252 13.296 270.532 13.104C271.812 12.8907 273.156 12.784 274.564 12.784C275.994 12.784 277.178 12.976 278.116 13.36C279.076 13.7227 279.834 14.2453 280.388 14.928C280.943 15.6107 281.338 16.4213 281.572 17.36C281.807 18.2987 281.924 19.344 281.924 20.496V30H277.156V21.072C277.156 19.536 276.954 18.448 276.548 17.808C276.143 17.168 275.386 16.848 274.276 16.848C273.935 16.848 273.572 16.8693 273.188 16.912C272.804 16.9333 272.463 16.9653 272.164 17.008V30H267.396V13.744Z" fill="black"/>
<path d="M3 45.4627C30.0668 40.8458 99.5697 40.8458 154.643 45.4627C212.074 50.2774 264.362 50.0797 284 45.4627" stroke="url(#paint0_linear_552_29)" stroke-width="5" stroke-linecap="square"/>
<defs>
<linearGradient id="paint0_linear_552_29" x1="284" y1="49" x2="257.79" y2="-36.6516" gradientUnits="userSpaceOnUse">
<stop stop-color="#3D97D8"/>
<stop offset="0.401042" stop-color="#61E2B4"/>
<stop offset="0.75" stop-color="#9FEB3F"/>
<stop offset="1" stop-color="#FFDE60"/>
</linearGradient>
</defs>
</svg>
