<svg width="366" height="40" viewBox="0 0 366 40" fill="none" xmlns="http://www.w3.org/2000/svg">
<path d="M17.1204 28.64V32H0.44043V4.27996H4.32043V28.64H17.1204Z" fill="black"/>
<path d="M38.8339 21.6C38.8339 23.2533 38.5939 24.7466 38.1139 26.08C37.6339 27.4133 36.9539 28.56 36.0739 29.52C35.2205 30.48 34.1939 31.2266 32.9939 31.76C31.7939 32.2666 30.4872 32.52 29.0739 32.52C27.6605 32.52 26.3539 32.2666 25.1539 31.76C23.9539 31.2266 22.9139 30.48 22.0339 29.52C21.1805 28.56 20.5139 27.4133 20.0339 26.08C19.5539 24.7466 19.3139 23.2533 19.3139 21.6C19.3139 19.9733 19.5539 18.4933 20.0339 17.16C20.5139 15.8 21.1805 14.64 22.0339 13.68C22.9139 12.72 23.9539 11.9866 25.1539 11.48C26.3539 10.9466 27.6605 10.68 29.0739 10.68C30.4872 10.68 31.7939 10.9466 32.9939 11.48C34.1939 11.9866 35.2205 12.72 36.0739 13.68C36.9539 14.64 37.6339 15.8 38.1139 17.16C38.5939 18.4933 38.8339 19.9733 38.8339 21.6ZM34.9539 21.6C34.9539 19.2533 34.4205 17.4 33.3539 16.04C32.3139 14.6533 30.8872 13.96 29.0739 13.96C27.2605 13.96 25.8205 14.6533 24.7539 16.04C23.7139 17.4 23.1939 19.2533 23.1939 21.6C23.1939 23.9466 23.7139 25.8133 24.7539 27.2C25.8205 28.56 27.2605 29.24 29.0739 29.24C30.8872 29.24 32.3139 28.56 33.3539 27.2C34.4205 25.8133 34.9539 23.9466 34.9539 21.6Z" fill="black"/>
<path d="M51.1076 29.32C51.9876 29.32 52.7609 29.3066 53.4276 29.28C54.1209 29.2266 54.6943 29.1466 55.1476 29.04V22.84C54.881 22.7066 54.441 22.6 53.8276 22.52C53.241 22.4133 52.521 22.36 51.6676 22.36C51.1076 22.36 50.5076 22.4 49.8676 22.48C49.2543 22.56 48.681 22.7333 48.1476 23C47.641 23.24 47.2143 23.5866 46.8676 24.04C46.521 24.4666 46.3476 25.04 46.3476 25.76C46.3476 27.0933 46.7743 28.0266 47.6276 28.56C48.4809 29.0666 49.6409 29.32 51.1076 29.32ZM50.7876 10.68C52.281 10.68 53.5343 10.88 54.5476 11.28C55.5876 11.6533 56.4143 12.2 57.0276 12.92C57.6676 13.6133 58.121 14.4533 58.3876 15.44C58.6543 16.4 58.7876 17.4666 58.7876 18.64V31.64C58.4676 31.6933 58.0143 31.7733 57.4276 31.88C56.8676 31.96 56.2276 32.04 55.5076 32.12C54.7876 32.2 54.001 32.2666 53.1476 32.32C52.321 32.4 51.4943 32.44 50.6676 32.44C49.4943 32.44 48.4143 32.32 47.4276 32.08C46.4409 31.84 45.5876 31.4666 44.8676 30.96C44.1476 30.4266 43.5876 29.7333 43.1876 28.88C42.7876 28.0266 42.5876 27 42.5876 25.8C42.5876 24.6533 42.8143 23.6666 43.2676 22.84C43.7476 22.0133 44.3876 21.3466 45.1876 20.84C45.9876 20.3333 46.921 19.96 47.9876 19.72C49.0543 19.48 50.1743 19.36 51.3476 19.36C51.721 19.36 52.1076 19.3866 52.5076 19.44C52.9076 19.4666 53.281 19.52 53.6276 19.6C54.001 19.6533 54.321 19.7066 54.5876 19.76C54.8543 19.8133 55.041 19.8533 55.1476 19.88V18.84C55.1476 18.2266 55.0809 17.6266 54.9476 17.04C54.8143 16.4266 54.5743 15.8933 54.2276 15.44C53.881 14.96 53.401 14.5866 52.7876 14.32C52.201 14.0266 51.4276 13.88 50.4676 13.88C49.241 13.88 48.161 13.9733 47.2276 14.16C46.321 14.32 45.641 14.4933 45.1876 14.68L44.7476 11.6C45.2276 11.3866 46.0276 11.1866 47.1476 11C48.2676 10.7866 49.481 10.68 50.7876 10.68Z" fill="black"/>
<path d="M64.9661 11.8C65.8194 11.5866 66.9527 11.36 68.3661 11.12C69.7794 10.88 71.4061 10.76 73.2461 10.76C74.8994 10.76 76.2727 11 77.3661 11.48C78.4594 11.9333 79.3261 12.5866 79.9661 13.44C80.6327 14.2666 81.0994 15.2666 81.3661 16.44C81.6327 17.6133 81.7661 18.9066 81.7661 20.32V32H78.0461V21.12C78.0461 19.84 77.9527 18.7466 77.7661 17.84C77.6061 16.9333 77.3261 16.2 76.9261 15.64C76.5261 15.08 75.9927 14.68 75.3261 14.44C74.6594 14.1733 73.8327 14.04 72.8461 14.04C72.4461 14.04 72.0327 14.0533 71.6061 14.08C71.1794 14.1066 70.7661 14.1466 70.3661 14.2C69.9927 14.2266 69.6461 14.2666 69.3261 14.32C69.0327 14.3733 68.8194 14.4133 68.6861 14.44V32H64.9661V11.8Z" fill="black"/>
<path d="M97.4326 32V4.27996H114.153V7.59996H101.313V15.96H112.713V19.24H101.313V32H97.4326Z" fill="black"/>
<path d="M136.49 21.6C136.49 23.2533 136.25 24.7466 135.77 26.08C135.29 27.4133 134.61 28.56 133.73 29.52C132.877 30.48 131.85 31.2266 130.65 31.76C129.45 32.2666 128.143 32.52 126.73 32.52C125.317 32.52 124.01 32.2666 122.81 31.76C121.61 31.2266 120.57 30.48 119.69 29.52C118.837 28.56 118.17 27.4133 117.69 26.08C117.21 24.7466 116.97 23.2533 116.97 21.6C116.97 19.9733 117.21 18.4933 117.69 17.16C118.17 15.8 118.837 14.64 119.69 13.68C120.57 12.72 121.61 11.9866 122.81 11.48C124.01 10.9466 125.317 10.68 126.73 10.68C128.143 10.68 129.45 10.9466 130.65 11.48C131.85 11.9866 132.877 12.72 133.73 13.68C134.61 14.64 135.29 15.8 135.77 17.16C136.25 18.4933 136.49 19.9733 136.49 21.6ZM132.61 21.6C132.61 19.2533 132.077 17.4 131.01 16.04C129.97 14.6533 128.543 13.96 126.73 13.96C124.917 13.96 123.477 14.6533 122.41 16.04C121.37 17.4 120.85 19.2533 120.85 21.6C120.85 23.9466 121.37 25.8133 122.41 27.2C123.477 28.56 124.917 29.24 126.73 29.24C128.543 29.24 129.97 28.56 131.01 27.2C132.077 25.8133 132.61 23.9466 132.61 21.6Z" fill="black"/>
<path d="M149.404 10.76C149.724 10.76 150.084 10.7866 150.484 10.84C150.911 10.8666 151.324 10.92 151.724 11C152.124 11.0533 152.484 11.12 152.804 11.2C153.151 11.2533 153.404 11.3066 153.564 11.36L152.924 14.6C152.631 14.4933 152.137 14.3733 151.444 14.24C150.777 14.08 149.911 14 148.844 14C148.151 14 147.457 14.08 146.764 14.24C146.097 14.3733 145.657 14.4666 145.444 14.52V32H141.724V12.08C142.604 11.76 143.697 11.4666 145.004 11.2C146.311 10.9066 147.777 10.76 149.404 10.76Z" fill="black"/>
<path d="M183.571 18.36H187.451V31.32C187.131 31.4266 186.665 31.5466 186.051 31.68C185.465 31.8133 184.771 31.9466 183.971 32.08C183.198 32.2133 182.345 32.32 181.411 32.4C180.478 32.5066 179.531 32.56 178.571 32.56C176.625 32.56 174.851 32.24 173.251 31.6C171.651 30.96 170.278 30.0266 169.131 28.8C167.985 27.5733 167.091 26.0666 166.451 24.28C165.838 22.4933 165.531 20.44 165.531 18.12C165.531 15.8 165.878 13.7466 166.571 11.96C167.291 10.1466 168.251 8.62663 169.451 7.39996C170.651 6.17329 172.051 5.23996 173.651 4.59996C175.278 3.95996 177.011 3.63996 178.851 3.63996C180.105 3.63996 181.211 3.71996 182.171 3.87996C183.158 4.03996 183.998 4.22663 184.691 4.43996C185.385 4.65329 185.945 4.86663 186.371 5.07996C186.825 5.29329 187.131 5.45329 187.291 5.55996L186.051 8.79996C185.278 8.29329 184.251 7.87996 182.971 7.55996C181.691 7.21329 180.385 7.03996 179.051 7.03996C177.638 7.03996 176.345 7.29329 175.171 7.79996C174.025 8.30663 173.038 9.03996 172.211 9.99996C171.411 10.96 170.785 12.1333 170.331 13.52C169.878 14.88 169.651 16.4133 169.651 18.12C169.651 19.7733 169.838 21.28 170.211 22.64C170.611 24 171.198 25.1733 171.971 26.16C172.771 27.12 173.745 27.8666 174.891 28.4C176.065 28.9333 177.438 29.2 179.011 29.2C180.131 29.2 181.078 29.1466 181.851 29.04C182.651 28.9066 183.225 28.7866 183.571 28.68V18.36Z" fill="black"/>
<path d="M197.006 32H193.286V11.2H197.006V32ZM195.126 7.43996C194.46 7.43996 193.886 7.22663 193.406 6.79996C192.953 6.34663 192.726 5.74663 192.726 4.99996C192.726 4.25329 192.953 3.66663 193.406 3.23996C193.886 2.78663 194.46 2.55996 195.126 2.55996C195.793 2.55996 196.353 2.78663 196.806 3.23996C197.286 3.66663 197.526 4.25329 197.526 4.99996C197.526 5.74663 197.286 6.34663 196.806 6.79996C196.353 7.22663 195.793 7.43996 195.126 7.43996Z" fill="black"/>
<path d="M216.444 29.92C216.124 30.1333 215.497 30.4133 214.564 30.76C213.657 31.08 212.59 31.24 211.364 31.24C210.11 31.24 208.924 31.04 207.804 30.64C206.71 30.24 205.75 29.6266 204.924 28.8C204.097 27.9466 203.444 26.8933 202.964 25.64C202.484 24.3866 202.244 22.8933 202.244 21.16C202.244 19.64 202.47 18.2533 202.924 17C203.377 15.72 204.03 14.6266 204.884 13.72C205.764 12.7866 206.83 12.0666 208.084 11.56C209.337 11.0266 210.75 10.76 212.324 10.76C214.057 10.76 215.564 10.8933 216.844 11.16C218.15 11.4 219.244 11.6266 220.124 11.84V30.4C220.124 33.6 219.297 35.92 217.644 37.36C215.99 38.8 213.484 39.52 210.124 39.52C208.817 39.52 207.577 39.4133 206.404 39.2C205.257 38.9866 204.257 38.7333 203.404 38.44L204.084 35.2C204.83 35.4933 205.737 35.7466 206.804 35.96C207.897 36.2 209.03 36.32 210.204 36.32C212.417 36.32 214.004 35.88 214.964 35C215.95 34.12 216.444 32.72 216.444 30.8V29.92ZM216.404 14.48C216.03 14.3733 215.524 14.28 214.884 14.2C214.27 14.0933 213.43 14.04 212.364 14.04C210.364 14.04 208.817 14.6933 207.724 16C206.657 17.3066 206.124 19.04 206.124 21.2C206.124 22.4 206.27 23.4266 206.564 24.28C206.884 25.1333 207.297 25.84 207.804 26.4C208.337 26.96 208.937 27.3733 209.604 27.64C210.297 27.9066 211.004 28.04 211.724 28.04C212.71 28.04 213.617 27.9066 214.444 27.64C215.27 27.3466 215.924 27.0133 216.404 26.64V14.48Z" fill="black"/>
<path d="M251.186 13.2C250.066 16.7733 248.933 20.08 247.786 23.12C246.64 26.16 245.493 29.12 244.346 32H240.466C239.053 27.92 237.8 23.6133 236.706 19.08C235.64 14.5466 234.64 9.61329 233.706 4.27996H237.786C238.16 6.35996 238.546 8.43996 238.946 10.52C239.346 12.6 239.76 14.6266 240.186 16.6C240.613 18.5466 241.04 20.4133 241.466 22.2C241.893 23.9866 242.333 25.64 242.786 27.16C243.853 24.36 244.986 21.2933 246.186 17.96C247.386 14.6 248.506 11.1333 249.546 7.55996H252.906C253.946 11.1333 255.08 14.6 256.306 17.96C257.533 21.2933 258.68 24.36 259.746 27.16C260.173 25.6666 260.6 24.0266 261.026 22.24C261.453 20.4533 261.866 18.5866 262.266 16.64C262.693 14.6666 263.106 12.64 263.506 10.56C263.906 8.45329 264.293 6.35996 264.666 4.27996H268.626C267.666 9.61329 266.64 14.5466 265.546 19.08C264.48 23.6133 263.253 27.92 261.866 32H257.986C256.813 29.12 255.666 26.16 254.546 23.12C253.426 20.08 252.306 16.7733 251.186 13.2Z" fill="black"/>
<path d="M290.396 21.6C290.396 23.2533 290.156 24.7466 289.676 26.08C289.196 27.4133 288.516 28.56 287.636 29.52C286.783 30.48 285.756 31.2266 284.556 31.76C283.356 32.2666 282.05 32.52 280.636 32.52C279.223 32.52 277.916 32.2666 276.716 31.76C275.516 31.2266 274.476 30.48 273.596 29.52C272.743 28.56 272.076 27.4133 271.596 26.08C271.116 24.7466 270.876 23.2533 270.876 21.6C270.876 19.9733 271.116 18.4933 271.596 17.16C272.076 15.8 272.743 14.64 273.596 13.68C274.476 12.72 275.516 11.9866 276.716 11.48C277.916 10.9466 279.223 10.68 280.636 10.68C282.05 10.68 283.356 10.9466 284.556 11.48C285.756 11.9866 286.783 12.72 287.636 13.68C288.516 14.64 289.196 15.8 289.676 17.16C290.156 18.4933 290.396 19.9733 290.396 21.6ZM286.516 21.6C286.516 19.2533 285.983 17.4 284.916 16.04C283.876 14.6533 282.45 13.96 280.636 13.96C278.823 13.96 277.383 14.6533 276.316 16.04C275.276 17.4 274.756 19.2533 274.756 21.6C274.756 23.9466 275.276 25.8133 276.316 27.2C277.383 28.56 278.823 29.24 280.636 29.24C282.45 29.24 283.876 28.56 284.916 27.2C285.983 25.8133 286.516 23.9466 286.516 21.6Z" fill="black"/>
<path d="M303.31 10.76C303.63 10.76 303.99 10.7866 304.39 10.84C304.817 10.8666 305.23 10.92 305.63 11C306.03 11.0533 306.39 11.12 306.71 11.2C307.057 11.2533 307.31 11.3066 307.47 11.36L306.83 14.6C306.537 14.4933 306.043 14.3733 305.35 14.24C304.683 14.08 303.817 14 302.75 14C302.057 14 301.363 14.08 300.67 14.24C300.003 14.3733 299.563 14.4666 299.35 14.52V32H295.63V12.08C296.51 11.76 297.603 11.4666 298.91 11.2C300.217 10.9066 301.683 10.76 303.31 10.76Z" fill="black"/>
<path d="M318.58 20.56C319.38 21.1733 320.22 21.9333 321.1 22.84C322.006 23.7466 322.886 24.7333 323.74 25.8C324.62 26.84 325.446 27.9066 326.22 29C326.993 30.0666 327.646 31.0666 328.18 32H323.82C323.26 31.0666 322.606 30.12 321.86 29.16C321.14 28.1733 320.38 27.24 319.58 26.36C318.78 25.4533 317.966 24.6266 317.14 23.88C316.313 23.1333 315.526 22.5066 314.78 22V32H311.06V1.59996L314.78 0.959961V19.92C315.42 19.28 316.126 18.5733 316.9 17.8C317.673 17.0266 318.433 16.24 319.18 15.44C319.926 14.64 320.633 13.88 321.3 13.16C321.966 12.4133 322.54 11.76 323.02 11.2H327.38C326.766 11.8666 326.1 12.6 325.38 13.4C324.66 14.2 323.913 15.0133 323.14 15.84C322.366 16.64 321.58 17.4533 320.78 18.28C320.006 19.08 319.273 19.84 318.58 20.56Z" fill="black"/>
<path d="M329.744 21.64C329.744 19.8 330.01 18.2 330.544 16.84C331.077 15.4533 331.784 14.3066 332.664 13.4C333.544 12.4933 334.557 11.8133 335.704 11.36C336.85 10.9066 338.024 10.68 339.224 10.68C342.024 10.68 344.17 11.56 345.664 13.32C347.157 15.0533 347.904 17.7066 347.904 21.28C347.904 21.44 347.904 21.6533 347.904 21.92C347.904 22.16 347.89 22.3866 347.864 22.6H333.624C333.784 24.76 334.41 26.4 335.504 27.52C336.597 28.64 338.304 29.2 340.624 29.2C341.93 29.2 343.024 29.0933 343.904 28.88C344.81 28.64 345.49 28.4133 345.944 28.2L346.464 31.32C346.01 31.56 345.21 31.8133 344.064 32.08C342.944 32.3466 341.664 32.48 340.224 32.48C338.41 32.48 336.837 32.2133 335.504 31.68C334.197 31.12 333.117 30.36 332.264 29.4C331.41 28.44 330.77 27.3066 330.344 26C329.944 24.6666 329.744 23.2133 329.744 21.64ZM344.024 19.6C344.05 17.92 343.624 16.5466 342.744 15.48C341.89 14.3866 340.704 13.84 339.184 13.84C338.33 13.84 337.57 14.0133 336.904 14.36C336.264 14.68 335.717 15.1066 335.264 15.64C334.81 16.1733 334.45 16.7866 334.184 17.48C333.944 18.1733 333.784 18.88 333.704 19.6H344.024Z" fill="black"/>
<path d="M360.927 10.76C361.247 10.76 361.607 10.7866 362.007 10.84C362.434 10.8666 362.847 10.92 363.247 11C363.647 11.0533 364.007 11.12 364.327 11.2C364.674 11.2533 364.927 11.3066 365.087 11.36L364.447 14.6C364.154 14.4933 363.661 14.3733 362.967 14.24C362.301 14.08 361.434 14 360.367 14C359.674 14 358.981 14.08 358.287 14.24C357.621 14.3733 357.181 14.4666 356.967 14.52V32H353.247V12.08C354.127 11.76 355.221 11.4666 356.527 11.2C357.834 10.9066 359.301 10.76 360.927 10.76Z" fill="black"/>
</svg>
