<svg width="512" height="126" viewBox="0 0 512 126" fill="none" xmlns="http://www.w3.org/2000/svg">
<path d="M23.8 69.486C23.8 70.7687 23.3313 71.854 22.394 72.742C21.4567 73.5807 20.3713 74 19.138 74C17.7567 74 16.6467 73.5807 15.808 72.742C14.9693 71.854 14.55 70.7687 14.55 69.486V26.714C14.55 25.4313 14.994 24.3707 15.882 23.532C16.77 22.644 17.9047 22.2 19.286 22.2C20.47 22.2 21.506 22.644 22.394 23.532C23.3313 24.3707 23.8 25.4313 23.8 26.714V69.486ZM54.9829 33.67C58.9296 33.67 61.8402 34.632 63.7149 36.556C65.5896 38.4307 66.8229 40.8727 67.4149 43.882L66.1569 43.216L66.7489 42.032C67.3409 40.8973 68.2536 39.6887 69.4869 38.406C70.7202 37.074 72.2002 35.964 73.9269 35.076C75.7029 34.1387 77.6762 33.67 79.8469 33.67C83.3989 33.67 86.0876 34.4347 87.9129 35.964C89.7876 37.4933 91.0702 39.5407 91.7609 42.106C92.4516 44.622 92.7969 47.434 92.7969 50.542V69.486C92.7969 70.7687 92.3776 71.854 91.5389 72.742C90.7002 73.5807 89.6396 74 88.3569 74C87.0742 74 86.0136 73.5807 85.1749 72.742C84.3362 71.854 83.9169 70.7687 83.9169 69.486V50.542C83.9169 48.914 83.7196 47.4587 83.3249 46.176C82.9302 44.844 82.2149 43.7833 81.1789 42.994C80.1429 42.2047 78.6629 41.81 76.7389 41.81C74.8642 41.81 73.2609 42.2047 71.9289 42.994C70.5969 43.7833 69.5856 44.844 68.8949 46.176C68.2536 47.4587 67.9329 48.914 67.9329 50.542V69.486C67.9329 70.7687 67.5136 71.854 66.6749 72.742C65.8362 73.5807 64.7756 74 63.4929 74C62.2102 74 61.1496 73.5807 60.3109 72.742C59.4722 71.854 59.0529 70.7687 59.0529 69.486V50.542C59.0529 48.914 58.8556 47.4587 58.4609 46.176C58.0662 44.844 57.3509 43.7833 56.3149 42.994C55.2789 42.2047 53.7989 41.81 51.8749 41.81C50.0002 41.81 48.3969 42.2047 47.0649 42.994C45.7329 43.7833 44.7216 44.844 44.0309 46.176C43.3896 47.4587 43.0689 48.914 43.0689 50.542V69.486C43.0689 70.7687 42.6496 71.854 41.8109 72.742C40.9722 73.5807 39.9116 74 38.6289 74C37.3462 74 36.2856 73.5807 35.4469 72.742C34.6082 71.854 34.1889 70.7687 34.1889 69.486V38.924C34.1889 37.6413 34.6082 36.5807 35.4469 35.742C36.2856 34.854 37.3462 34.41 38.6289 34.41C39.9116 34.41 40.9722 34.854 41.8109 35.742C42.6496 36.5807 43.0689 37.6413 43.0689 38.924V42.106L41.9589 41.884C42.4029 41.0453 43.0196 40.1573 43.8089 39.22C44.5982 38.2333 45.5602 37.3207 46.6949 36.482C47.8296 35.6433 49.0876 34.9773 50.4689 34.484C51.8502 33.9413 53.3549 33.67 54.9829 33.67ZM122.906 33.67C126.359 33.67 129.442 34.558 132.156 36.334C134.918 38.0607 137.089 40.4533 138.668 43.512C140.296 46.5707 141.11 50.1227 141.11 54.168C141.11 58.2133 140.296 61.79 138.668 64.898C137.089 67.9567 134.943 70.374 132.23 72.15C129.566 73.8767 126.556 74.74 123.202 74.74C121.228 74.74 119.378 74.4193 117.652 73.778C115.925 73.1367 114.396 72.3227 113.064 71.336C111.781 70.3493 110.77 69.3627 110.03 68.376C109.339 67.34 108.994 66.4767 108.994 65.786L111.288 64.824V84.286C111.288 85.5687 110.868 86.6293 110.03 87.468C109.191 88.356 108.13 88.8 106.848 88.8C105.565 88.8 104.504 88.3807 103.666 87.542C102.827 86.7033 102.408 85.618 102.408 84.286V38.924C102.408 37.6413 102.827 36.5807 103.666 35.742C104.504 34.854 105.565 34.41 106.848 34.41C108.13 34.41 109.191 34.854 110.03 35.742C110.868 36.5807 111.288 37.6413 111.288 38.924V42.55L110.03 41.884C110.03 41.2427 110.375 40.478 111.066 39.59C111.756 38.6527 112.694 37.74 113.878 36.852C115.062 35.9147 116.418 35.15 117.948 34.558C119.526 33.966 121.179 33.67 122.906 33.67ZM121.796 41.81C119.625 41.81 117.726 42.3527 116.098 43.438C114.47 44.5233 113.187 46.0033 112.25 47.878C111.362 49.7033 110.918 51.8 110.918 54.168C110.918 56.4867 111.362 58.608 112.25 60.532C113.187 62.4067 114.47 63.8867 116.098 64.972C117.726 66.0573 119.625 66.6 121.796 66.6C123.966 66.6 125.841 66.0573 127.42 64.972C129.048 63.8867 130.306 62.4067 131.194 60.532C132.131 58.608 132.6 56.4867 132.6 54.168C132.6 51.8 132.131 49.7033 131.194 47.878C130.306 46.0033 129.048 44.5233 127.42 43.438C125.841 42.3527 123.966 41.81 121.796 41.81ZM187.28 54.242C187.28 58.2873 186.368 61.864 184.542 64.972C182.766 68.0307 180.349 70.4233 177.29 72.15C174.281 73.8767 170.902 74.74 167.152 74.74C163.403 74.74 159.999 73.8767 156.94 72.15C153.931 70.4233 151.514 68.0307 149.688 64.972C147.912 61.864 147.024 58.2873 147.024 54.242C147.024 50.1967 147.912 46.6447 149.688 43.586C151.514 40.478 153.931 38.0607 156.94 36.334C159.999 34.558 163.403 33.67 167.152 33.67C170.902 33.67 174.281 34.558 177.29 36.334C180.349 38.0607 182.766 40.478 184.542 43.586C186.368 46.6447 187.28 50.1967 187.28 54.242ZM178.4 54.242C178.4 51.726 177.882 49.5553 176.846 47.73C175.86 45.8553 174.503 44.4 172.776 43.364C171.099 42.328 169.224 41.81 167.152 41.81C165.08 41.81 163.181 42.328 161.454 43.364C159.777 44.4 158.42 45.8553 157.384 47.73C156.398 49.5553 155.904 51.726 155.904 54.242C155.904 56.7087 156.398 58.8793 157.384 60.754C158.42 62.5793 159.777 64.01 161.454 65.046C163.181 66.082 165.08 66.6 167.152 66.6C169.224 66.6 171.099 66.082 172.776 65.046C174.503 64.01 175.86 62.5793 176.846 60.754C177.882 58.8793 178.4 56.7087 178.4 54.242ZM199.492 74C198.21 74 197.149 73.5807 196.31 72.742C195.472 71.854 195.052 70.7687 195.052 69.486V38.924C195.052 37.6413 195.472 36.5807 196.31 35.742C197.149 34.854 198.21 34.41 199.492 34.41C200.775 34.41 201.836 34.854 202.674 35.742C203.513 36.5807 203.932 37.6413 203.932 38.924V45.88L203.414 40.922C203.957 39.738 204.648 38.702 205.486 37.814C206.374 36.8767 207.361 36.112 208.446 35.52C209.532 34.8787 210.691 34.41 211.924 34.114C213.158 33.818 214.391 33.67 215.624 33.67C217.104 33.67 218.338 34.0893 219.324 34.928C220.36 35.7667 220.878 36.7533 220.878 37.888C220.878 39.516 220.459 40.7 219.62 41.44C218.782 42.1307 217.869 42.476 216.882 42.476C215.945 42.476 215.082 42.3033 214.292 41.958C213.552 41.6127 212.689 41.44 211.702 41.44C210.814 41.44 209.902 41.662 208.964 42.106C208.076 42.5007 207.238 43.142 206.448 44.03C205.708 44.918 205.092 46.028 204.598 47.36C204.154 48.6427 203.932 50.172 203.932 51.948V69.486C203.932 70.7687 203.513 71.854 202.674 72.742C201.836 73.5807 200.775 74 199.492 74ZM227.582 35.15H245.12C246.304 35.15 247.291 35.5447 248.08 36.334C248.869 37.1233 249.264 38.11 249.264 39.294C249.264 40.4287 248.869 41.3907 248.08 42.18C247.291 42.92 246.304 43.29 245.12 43.29H227.582C226.398 43.29 225.411 42.8953 224.622 42.106C223.833 41.3167 223.438 40.33 223.438 39.146C223.438 38.0113 223.833 37.074 224.622 36.334C225.411 35.5447 226.398 35.15 227.582 35.15ZM235.5 25.9C236.783 25.9 237.819 26.344 238.608 27.232C239.447 28.0707 239.866 29.1313 239.866 30.414V63.344C239.866 64.0347 239.989 64.602 240.236 65.046C240.532 65.49 240.902 65.8107 241.346 66.008C241.839 66.2053 242.357 66.304 242.9 66.304C243.492 66.304 244.035 66.2053 244.528 66.008C245.021 65.7613 245.589 65.638 246.23 65.638C246.921 65.638 247.537 65.9587 248.08 66.6C248.672 67.2413 248.968 68.1293 248.968 69.264C248.968 70.6453 248.203 71.78 246.674 72.668C245.194 73.556 243.591 74 241.864 74C240.828 74 239.669 73.926 238.386 73.778C237.153 73.5807 235.969 73.1613 234.834 72.52C233.749 71.8293 232.836 70.7933 232.096 69.412C231.356 68.0307 230.986 66.1313 230.986 63.714V30.414C230.986 29.1313 231.405 28.0707 232.244 27.232C233.132 26.344 234.217 25.9 235.5 25.9ZM337.136 21.978C338.27 21.978 339.356 22.422 340.392 23.31C341.428 24.1487 341.946 25.308 341.946 26.788C341.946 27.232 341.872 27.7253 341.724 28.268L327.146 71.188C326.85 72.076 326.307 72.7667 325.518 73.26C324.778 73.704 323.988 73.9507 323.15 74C322.311 74 321.472 73.7533 320.634 73.26C319.844 72.7667 319.228 72.0513 318.784 71.114L307.832 46.25L308.498 46.694L297.694 71.114C297.25 72.0513 296.608 72.7667 295.77 73.26C294.98 73.7533 294.166 74 293.328 74C292.538 73.9507 291.749 73.704 290.96 73.26C290.17 72.7667 289.628 72.076 289.332 71.188L274.754 28.268C274.606 27.7253 274.532 27.232 274.532 26.788C274.532 25.308 275.05 24.1487 276.086 23.31C277.171 22.422 278.281 21.978 279.416 21.978C280.353 21.978 281.216 22.2247 282.006 22.718C282.844 23.2113 283.412 23.9267 283.708 24.864L295.474 60.532L293.846 60.458L304.354 35.224C304.748 34.336 305.316 33.6453 306.056 33.152C306.796 32.6093 307.634 32.3627 308.572 32.412C309.509 32.3627 310.348 32.6093 311.088 33.152C311.828 33.6453 312.37 34.336 312.716 35.224L322.336 59.348L321.152 60.088L332.77 24.864C333.066 23.9267 333.633 23.2113 334.472 22.718C335.31 22.2247 336.198 21.978 337.136 21.978ZM379.728 33.67C381.011 33.67 382.071 34.0893 382.91 34.928C383.749 35.7667 384.168 36.852 384.168 38.184V69.486C384.168 70.7687 383.749 71.854 382.91 72.742C382.071 73.5807 381.011 74 379.728 74C378.445 74 377.385 73.5807 376.546 72.742C375.707 71.854 375.288 70.7687 375.288 69.486V65.86L376.916 66.526C376.916 67.1673 376.571 67.9567 375.88 68.894C375.189 69.782 374.252 70.67 373.068 71.558C371.884 72.446 370.478 73.2107 368.85 73.852C367.271 74.444 365.545 74.74 363.67 74.74C360.266 74.74 357.183 73.8767 354.42 72.15C351.657 70.374 349.462 67.9567 347.834 64.898C346.255 61.79 345.466 58.238 345.466 54.242C345.466 50.1967 346.255 46.6447 347.834 43.586C349.462 40.478 351.633 38.0607 354.346 36.334C357.059 34.558 360.069 33.67 363.374 33.67C365.495 33.67 367.444 33.9907 369.22 34.632C370.996 35.2733 372.525 36.0873 373.808 37.074C375.14 38.0607 376.151 39.072 376.842 40.108C377.582 41.0947 377.952 41.9333 377.952 42.624L375.288 43.586V38.184C375.288 36.9013 375.707 35.8407 376.546 35.002C377.385 34.114 378.445 33.67 379.728 33.67ZM364.78 66.6C366.951 66.6 368.85 66.0573 370.478 64.972C372.106 63.8867 373.364 62.4067 374.252 60.532C375.189 58.6573 375.658 56.5607 375.658 54.242C375.658 51.874 375.189 49.7527 374.252 47.878C373.364 46.0033 372.106 44.5233 370.478 43.438C368.85 42.3527 366.951 41.81 364.78 41.81C362.659 41.81 360.784 42.3527 359.156 43.438C357.528 44.5233 356.245 46.0033 355.308 47.878C354.42 49.7527 353.976 51.874 353.976 54.242C353.976 56.5607 354.42 58.6573 355.308 60.532C356.245 62.4067 357.528 63.8867 359.156 64.972C360.784 66.0573 362.659 66.6 364.78 66.6ZM403.403 69.486C403.403 70.7687 402.959 71.854 402.071 72.742C401.232 73.5807 400.171 74 398.889 74C397.655 74 396.619 73.5807 395.781 72.742C394.942 71.854 394.523 70.7687 394.523 69.486V23.754C394.523 22.4713 394.942 21.4107 395.781 20.572C396.669 19.684 397.754 19.24 399.037 19.24C400.319 19.24 401.355 19.684 402.145 20.572C402.983 21.4107 403.403 22.4713 403.403 23.754V69.486ZM423.348 69.486C423.348 70.7687 422.904 71.854 422.016 72.742C421.177 73.5807 420.117 74 418.834 74C417.601 74 416.565 73.5807 415.726 72.742C414.887 71.854 414.468 70.7687 414.468 69.486V23.754C414.468 22.4713 414.887 21.4107 415.726 20.572C416.614 19.684 417.699 19.24 418.982 19.24C420.265 19.24 421.301 19.684 422.09 20.572C422.929 21.4107 423.348 22.4713 423.348 23.754V69.486ZM451.599 74.74C447.405 74.74 443.755 73.8767 440.647 72.15C437.588 70.374 435.22 67.9813 433.543 64.972C431.915 61.9627 431.101 58.5587 431.101 54.76C431.101 50.32 431.989 46.546 433.765 43.438C435.59 40.2807 437.958 37.8633 440.869 36.186C443.779 34.5087 446.863 33.67 450.119 33.67C452.635 33.67 455.003 34.188 457.223 35.224C459.492 36.26 461.49 37.6907 463.217 39.516C464.943 41.292 466.3 43.364 467.287 45.732C468.323 48.1 468.841 50.616 468.841 53.28C468.791 54.464 468.323 55.426 467.435 56.166C466.547 56.906 465.511 57.276 464.327 57.276H436.059L433.839 49.876H460.997L459.369 51.356V49.358C459.27 47.9273 458.752 46.6447 457.815 45.51C456.927 44.3753 455.792 43.4873 454.411 42.846C453.079 42.1553 451.648 41.81 450.119 41.81C448.639 41.81 447.257 42.0073 445.975 42.402C444.692 42.7967 443.582 43.4627 442.645 44.4C441.707 45.3373 440.967 46.5953 440.425 48.174C439.882 49.7527 439.611 51.7507 439.611 54.168C439.611 56.832 440.153 59.1013 441.239 60.976C442.373 62.8013 443.804 64.2073 445.531 65.194C447.307 66.1313 449.181 66.6 451.155 66.6C452.98 66.6 454.435 66.452 455.521 66.156C456.606 65.86 457.469 65.5147 458.111 65.12C458.801 64.676 459.418 64.306 459.961 64.01C460.849 63.566 461.687 63.344 462.477 63.344C463.562 63.344 464.45 63.714 465.141 64.454C465.881 65.194 466.251 66.0573 466.251 67.044C466.251 68.376 465.56 69.5847 464.179 70.67C462.896 71.7553 461.095 72.7173 458.777 73.556C456.458 74.3453 454.065 74.74 451.599 74.74ZM477.043 35.15H494.581C495.765 35.15 496.752 35.5447 497.541 36.334C498.33 37.1233 498.725 38.11 498.725 39.294C498.725 40.4287 498.33 41.3907 497.541 42.18C496.752 42.92 495.765 43.29 494.581 43.29H477.043C475.859 43.29 474.872 42.8953 474.083 42.106C473.294 41.3167 472.899 40.33 472.899 39.146C472.899 38.0113 473.294 37.074 474.083 36.334C474.872 35.5447 475.859 35.15 477.043 35.15ZM484.961 25.9C486.244 25.9 487.28 26.344 488.069 27.232C488.908 28.0707 489.327 29.1313 489.327 30.414V63.344C489.327 64.0347 489.45 64.602 489.697 65.046C489.993 65.49 490.363 65.8107 490.807 66.008C491.3 66.2053 491.818 66.304 492.361 66.304C492.953 66.304 493.496 66.2053 493.989 66.008C494.482 65.7613 495.05 65.638 495.691 65.638C496.382 65.638 496.998 65.9587 497.541 66.6C498.133 67.2413 498.429 68.1293 498.429 69.264C498.429 70.6453 497.664 71.78 496.135 72.668C494.655 73.556 493.052 74 491.325 74C490.289 74 489.13 73.926 487.847 73.778C486.614 73.5807 485.43 73.1613 484.295 72.52C483.21 71.8293 482.297 70.7933 481.557 69.412C480.817 68.0307 480.447 66.1313 480.447 63.714V30.414C480.447 29.1313 480.866 28.0707 481.705 27.232C482.593 26.344 483.678 25.9 484.961 25.9Z" fill="#222222"/>
<path d="M9 111.431C56.4874 102.856 178.427 102.856 275.049 111.431C375.81 120.372 467.545 120.005 502 111.431" stroke="url(#paint0_linear_423_1072)" stroke-width="15" stroke-linecap="square"/>
<defs>
<linearGradient id="paint0_linear_423_1072" x1="502" y1="118" x2="451.002" y2="-39.443" gradientUnits="userSpaceOnUse">
<stop stop-color="#3D97D8"/>
<stop offset="0.401042" stop-color="#61E2B4"/>
<stop offset="0.75" stop-color="#9FEB3F"/>
<stop offset="1" stop-color="#FFDE60"/>
</linearGradient>
</defs>
</svg>
