<svg width="226" height="65" viewBox="0 0 226 65" fill="none" xmlns="http://www.w3.org/2000/svg">
<rect width="226" height="65" rx="17" fill="url(#paint0_linear_559_38)"/>
<path d="M89.504 42.336C86.8 42.336 84.736 41.584 83.312 40.08C81.904 38.576 81.2 36.44 81.2 33.672C81.2 32.296 81.416 31.072 81.848 30C82.28 28.912 82.872 28 83.624 27.264C84.376 26.512 85.272 25.944 86.312 25.56C87.352 25.176 88.48 24.984 89.696 24.984C90.4 24.984 91.04 25.04 91.616 25.152C92.192 25.248 92.696 25.368 93.128 25.512C93.56 25.64 93.92 25.776 94.208 25.92C94.496 26.064 94.704 26.176 94.832 26.256L93.752 29.28C93.24 29.008 92.64 28.776 91.952 28.584C91.28 28.392 90.512 28.296 89.648 28.296C89.072 28.296 88.504 28.392 87.944 28.584C87.4 28.776 86.912 29.088 86.48 29.52C86.064 29.936 85.728 30.48 85.472 31.152C85.216 31.824 85.088 32.64 85.088 33.6C85.088 34.368 85.168 35.088 85.328 35.76C85.504 36.416 85.776 36.984 86.144 37.464C86.528 37.944 87.024 38.328 87.632 38.616C88.24 38.888 88.976 39.024 89.84 39.024C90.384 39.024 90.872 38.992 91.304 38.928C91.736 38.864 92.12 38.792 92.456 38.712C92.792 38.616 93.088 38.512 93.344 38.4C93.6 38.288 93.832 38.184 94.04 38.088L95.072 41.088C94.544 41.408 93.8 41.696 92.84 41.952C91.88 42.208 90.768 42.336 89.504 42.336ZM102.283 42.24C101.243 42.224 100.395 42.112 99.7385 41.904C99.0985 41.696 98.5865 41.408 98.2025 41.04C97.8345 40.656 97.5785 40.2 97.4345 39.672C97.3065 39.128 97.2425 38.52 97.2425 37.848V23.952L100.819 23.376V37.128C100.819 37.448 100.843 37.736 100.891 37.992C100.939 38.248 101.027 38.464 101.155 38.64C101.299 38.816 101.499 38.96 101.755 39.072C102.011 39.184 102.355 39.256 102.787 39.288L102.283 42.24ZM110.012 39.504C110.364 39.504 110.7 39.496 111.02 39.48C111.34 39.464 111.596 39.44 111.788 39.408V36.696C111.644 36.664 111.428 36.632 111.14 36.6C110.852 36.568 110.588 36.552 110.348 36.552C110.012 36.552 109.692 36.576 109.388 36.624C109.1 36.656 108.844 36.728 108.62 36.84C108.396 36.952 108.22 37.104 108.092 37.296C107.964 37.488 107.9 37.728 107.9 38.016C107.9 38.576 108.084 38.968 108.452 39.192C108.836 39.4 109.356 39.504 110.012 39.504ZM109.724 29.04C110.78 29.04 111.66 29.16 112.364 29.4C113.068 29.64 113.628 29.984 114.044 30.432C114.476 30.88 114.78 31.424 114.956 32.064C115.132 32.704 115.22 33.416 115.22 34.2V41.64C114.708 41.752 113.996 41.88 113.084 42.024C112.172 42.184 111.068 42.264 109.772 42.264C108.956 42.264 108.212 42.192 107.54 42.048C106.884 41.904 106.316 41.672 105.836 41.352C105.356 41.016 104.988 40.584 104.732 40.056C104.476 39.528 104.348 38.88 104.348 38.112C104.348 37.376 104.492 36.752 104.78 36.24C105.084 35.728 105.484 35.32 105.98 35.016C106.476 34.712 107.044 34.496 107.684 34.368C108.324 34.224 108.988 34.152 109.676 34.152C110.14 34.152 110.548 34.176 110.9 34.224C111.268 34.256 111.564 34.304 111.788 34.368V34.032C111.788 33.424 111.604 32.936 111.236 32.568C110.868 32.2 110.228 32.016 109.316 32.016C108.708 32.016 108.108 32.064 107.516 32.16C106.924 32.24 106.412 32.36 105.98 32.52L105.524 29.64C105.732 29.576 105.988 29.512 106.292 29.448C106.612 29.368 106.956 29.304 107.324 29.256C107.692 29.192 108.076 29.144 108.476 29.112C108.892 29.064 109.308 29.04 109.724 29.04ZM122.029 42H118.453V29.376H122.029V42ZM122.365 25.728C122.365 26.384 122.149 26.904 121.717 27.288C121.301 27.656 120.805 27.84 120.229 27.84C119.653 27.84 119.149 27.656 118.717 27.288C118.301 26.904 118.093 26.384 118.093 25.728C118.093 25.072 118.301 24.56 118.717 24.192C119.149 23.808 119.653 23.616 120.229 23.616C120.805 23.616 121.301 23.808 121.717 24.192C122.149 24.56 122.365 25.072 122.365 25.728ZM132.327 35.304C132.327 34.152 132.175 33.336 131.871 32.856C131.583 32.376 131.079 32.136 130.359 32.136C130.135 32.136 129.903 32.152 129.663 32.184C129.423 32.2 129.191 32.224 128.967 32.256V42H125.391V29.808C125.695 29.728 126.047 29.648 126.447 29.568C126.863 29.472 127.295 29.392 127.743 29.328C128.207 29.248 128.679 29.192 129.159 29.16C129.639 29.112 130.111 29.088 130.575 29.088C131.487 29.088 132.223 29.208 132.783 29.448C133.359 29.672 133.831 29.944 134.199 30.264C134.711 29.896 135.295 29.608 135.951 29.4C136.623 29.192 137.239 29.088 137.799 29.088C138.807 29.088 139.631 29.232 140.271 29.52C140.927 29.792 141.447 30.184 141.831 30.696C142.215 31.208 142.479 31.816 142.623 32.52C142.767 33.224 142.839 34.008 142.839 34.872V42H139.263V35.304C139.263 34.152 139.111 33.336 138.807 32.856C138.519 32.376 138.015 32.136 137.295 32.136C137.103 32.136 136.831 32.184 136.479 32.28C136.143 32.376 135.863 32.496 135.639 32.64C135.751 33.008 135.823 33.4 135.855 33.816C135.887 34.216 135.903 34.648 135.903 35.112V42H132.327V35.304Z" fill="white"/>
<defs>
<linearGradient id="paint0_linear_559_38" x1="226" y1="33" x2="0.203605" y2="39.7803" gradientUnits="userSpaceOnUse">
<stop stop-color="#3D97D8"/>
<stop offset="0.416667" stop-color="#42D7A1"/>
<stop offset="0.739583" stop-color="#9FEB3F"/>
<stop offset="1" stop-color="#FFDE60"/>
</linearGradient>
</defs>
</svg>
