<svg width="490" height="65" viewBox="0 0 490 65" fill="none" xmlns="http://www.w3.org/2000/svg">
<path d="M0 17C0 7.61116 7.61116 0 17 0H473C482.389 0 490 7.61116 490 17V48C490 57.3888 482.389 65 473 65H17C7.61117 65 0 57.3888 0 48V17Z" fill="white" fill-opacity="0.5"/>
<path d="M17 1H473C481.837 1 489 8.16345 489 17V48C489 56.8366 481.837 64 473 64H17C8.16345 64 1 56.8366 1 48V17C1 8.16344 8.16344 1 17 1Z" stroke="#5E5B52" stroke-opacity="0.5" stroke-width="2"/>
<path d="M28.02 37.12C28.9267 37.12 29.5867 36.9667 30 36.66C30.4133 36.3533 30.62 35.92 30.62 35.36C30.62 35.0267 30.5467 34.74 30.4 34.5C30.2667 34.26 30.0667 34.0467 29.8 33.86C29.5467 33.66 29.2333 33.48 28.86 33.32C28.4867 33.1467 28.06 32.98 27.58 32.82C27.1 32.6467 26.6333 32.46 26.18 32.26C25.74 32.0467 25.3467 31.7867 25 31.48C24.6667 31.1733 24.3933 30.8067 24.18 30.38C23.98 29.9533 23.88 29.44 23.88 28.84C23.88 27.5867 24.3133 26.6067 25.18 25.9C26.0467 25.18 27.2267 24.82 28.72 24.82C29.5867 24.82 30.3533 24.92 31.02 25.12C31.7 25.3067 32.2333 25.5133 32.62 25.74L31.84 27.78C31.3867 27.5267 30.8867 27.3333 30.34 27.2C29.8067 27.0667 29.2533 27 28.68 27C28 27 27.4667 27.14 27.08 27.42C26.7067 27.7 26.52 28.0933 26.52 28.6C26.52 28.9067 26.58 29.1733 26.7 29.4C26.8333 29.6133 27.0133 29.8067 27.24 29.98C27.48 30.1533 27.7533 30.3133 28.06 30.46C28.38 30.6067 28.7267 30.7467 29.1 30.88C29.7533 31.12 30.3333 31.3667 30.84 31.62C31.36 31.86 31.7933 32.1533 32.14 32.5C32.5 32.8333 32.7733 33.2333 32.96 33.7C33.1467 34.1533 33.24 34.7067 33.24 35.36C33.24 36.6133 32.7933 37.5867 31.9 38.28C31.02 38.96 29.7267 39.3 28.02 39.3C27.4467 39.3 26.92 39.26 26.44 39.18C25.9733 39.1133 25.5533 39.0267 25.18 38.92C24.82 38.8133 24.5067 38.7067 24.24 38.6C23.9733 38.48 23.76 38.3733 23.6 38.28L24.34 36.22C24.7 36.42 25.1867 36.62 25.8 36.82C26.4133 37.02 27.1533 37.12 28.02 37.12ZM34.7608 33.82C34.7608 32.9 34.8941 32.0933 35.1608 31.4C35.4408 30.7067 35.8074 30.1333 36.2608 29.68C36.7141 29.2133 37.2341 28.8667 37.8208 28.64C38.4074 28.4 39.0074 28.28 39.6208 28.28C41.0608 28.28 42.1808 28.7267 42.9808 29.62C43.7941 30.5133 44.2008 31.8467 44.2008 33.62C44.2008 33.7533 44.1941 33.9067 44.1808 34.08C44.1808 34.24 44.1741 34.3867 44.1608 34.52H37.2608C37.3274 35.36 37.6208 36.0133 38.1408 36.48C38.6741 36.9333 39.4408 37.16 40.4408 37.16C41.0274 37.16 41.5608 37.1067 42.0408 37C42.5341 36.8933 42.9208 36.78 43.2008 36.66L43.5208 38.64C43.3874 38.7067 43.2008 38.78 42.9608 38.86C42.7341 38.9267 42.4674 38.9867 42.1608 39.04C41.8674 39.1067 41.5474 39.16 41.2008 39.2C40.8541 39.24 40.5008 39.26 40.1408 39.26C39.2208 39.26 38.4208 39.1267 37.7408 38.86C37.0608 38.58 36.5008 38.2 36.0608 37.72C35.6208 37.2267 35.2941 36.6533 35.0808 36C34.8674 35.3333 34.7608 34.6067 34.7608 33.82ZM41.7808 32.74C41.7808 32.4067 41.7341 32.0933 41.6408 31.8C41.5474 31.4933 41.4074 31.2333 41.2208 31.02C41.0474 30.7933 40.8274 30.62 40.5608 30.5C40.3074 30.3667 40.0008 30.3 39.6408 30.3C39.2674 30.3 38.9408 30.3733 38.6608 30.52C38.3808 30.6533 38.1408 30.8333 37.9408 31.06C37.7541 31.2867 37.6074 31.5467 37.5008 31.84C37.3941 32.1333 37.3208 32.4333 37.2808 32.74H41.7808ZM50.4466 37.3C51.1932 37.3 51.7599 37.26 52.1466 37.18V34.5C52.0132 34.46 51.8199 34.42 51.5666 34.38C51.3132 34.34 51.0332 34.32 50.7266 34.32C50.4599 34.32 50.1866 34.34 49.9066 34.38C49.6399 34.42 49.3932 34.4933 49.1666 34.6C48.9532 34.7067 48.7799 34.86 48.6466 35.06C48.5132 35.2467 48.4466 35.4867 48.4466 35.78C48.4466 36.3533 48.6266 36.7533 48.9866 36.98C49.3466 37.1933 49.8332 37.3 50.4466 37.3ZM50.2466 28.28C51.0466 28.28 51.7199 28.38 52.2666 28.58C52.8132 28.78 53.2466 29.06 53.5666 29.42C53.8999 29.78 54.1332 30.22 54.2666 30.74C54.4132 31.2467 54.4866 31.8067 54.4866 32.42V38.76C54.1132 38.84 53.5466 38.9333 52.7866 39.04C52.0399 39.16 51.1932 39.22 50.2466 39.22C49.6199 39.22 49.0466 39.16 48.5266 39.04C48.0066 38.92 47.5599 38.7267 47.1866 38.46C46.8266 38.1933 46.5399 37.8467 46.3266 37.42C46.1266 36.9933 46.0266 36.4667 46.0266 35.84C46.0266 35.24 46.1399 34.7333 46.3666 34.32C46.6066 33.9067 46.9266 33.5733 47.3266 33.32C47.7266 33.0533 48.1866 32.8667 48.7066 32.76C49.2399 32.64 49.7932 32.58 50.3666 32.58C50.6332 32.58 50.9132 32.6 51.2066 32.64C51.4999 32.6667 51.8132 32.72 52.1466 32.8V32.4C52.1466 32.12 52.1132 31.8533 52.0466 31.6C51.9799 31.3467 51.8599 31.1267 51.6866 30.94C51.5266 30.74 51.3066 30.5867 51.0266 30.48C50.7599 30.3733 50.4199 30.32 50.0066 30.32C49.4466 30.32 48.9332 30.36 48.4666 30.44C47.9999 30.52 47.6199 30.6133 47.3266 30.72L47.0266 28.76C47.3332 28.6533 47.7799 28.5467 48.3666 28.44C48.9532 28.3333 49.5799 28.28 50.2466 28.28ZM63.4102 30.72C63.2102 30.6533 62.9302 30.5867 62.5702 30.52C62.2235 30.44 61.8168 30.4 61.3502 30.4C61.0835 30.4 60.7968 30.4267 60.4902 30.48C60.1968 30.5333 59.9902 30.58 59.8702 30.62V39H57.4502V29.04C57.9168 28.8667 58.4968 28.7067 59.1902 28.56C59.8968 28.4 60.6768 28.32 61.5302 28.32C61.6902 28.32 61.8768 28.3333 62.0902 28.36C62.3035 28.3733 62.5168 28.4 62.7302 28.44C62.9435 28.4667 63.1502 28.5067 63.3502 28.56C63.5502 28.6 63.7102 28.64 63.8302 28.68L63.4102 30.72ZM64.9366 33.78C64.9366 33.0067 65.0566 32.2867 65.2966 31.62C65.5366 30.94 65.8766 30.3533 66.3166 29.86C66.7699 29.3667 67.3166 28.98 67.9566 28.7C68.5966 28.42 69.3166 28.28 70.1166 28.28C71.1032 28.28 72.0366 28.46 72.9166 28.82L72.3966 30.8C72.1166 30.68 71.7966 30.58 71.4366 30.5C71.0899 30.42 70.7166 30.38 70.3166 30.38C69.3699 30.38 68.6499 30.68 68.1566 31.28C67.6632 31.8667 67.4166 32.7 67.4166 33.78C67.4166 34.82 67.6499 35.6467 68.1166 36.26C68.5832 36.86 69.3699 37.16 70.4766 37.16C70.8899 37.16 71.2966 37.12 71.6966 37.04C72.0966 36.96 72.4432 36.86 72.7366 36.74L73.0766 38.74C72.8099 38.8733 72.4032 38.9933 71.8566 39.1C71.3232 39.2067 70.7699 39.26 70.1966 39.26C69.3032 39.26 68.5232 39.1267 67.8566 38.86C67.2032 38.58 66.6566 38.2 66.2166 37.72C65.7899 37.2267 65.4699 36.6467 65.2566 35.98C65.0432 35.3 64.9366 34.5667 64.9366 33.78ZM74.9502 39V23.88L77.3702 23.48V28.66C77.6368 28.5667 77.9435 28.4867 78.2902 28.42C78.6502 28.3533 79.0035 28.32 79.3502 28.32C80.1902 28.32 80.8835 28.44 81.4302 28.68C81.9902 28.9067 82.4368 29.2333 82.7702 29.66C83.1035 30.0733 83.3368 30.5733 83.4702 31.16C83.6168 31.7467 83.6902 32.4 83.6902 33.12V39H81.2702V33.5C81.2702 32.94 81.2302 32.4667 81.1502 32.08C81.0835 31.68 80.9635 31.36 80.7902 31.12C80.6302 30.8667 80.4102 30.6867 80.1302 30.58C79.8502 30.46 79.5035 30.4 79.0902 30.4C78.7702 30.4 78.4435 30.4333 78.1102 30.5C77.7768 30.5667 77.5302 30.6267 77.3702 30.68V39H74.9502Z" fill="black" fill-opacity="0.3"/>
<path d="M464 43L460.25 39.25M461.5 31.75C461.5 36.5825 457.582 40.5 452.75 40.5C447.918 40.5 444 36.5825 444 31.75C444 26.9175 447.918 23 452.75 23C457.582 23 461.5 26.9175 461.5 31.75Z" stroke="#AFAEAB" stroke-width="3" stroke-linecap="square"/>
</svg>
