<svg width="663" height="124" viewBox="0 0 663 124" fill="none" xmlns="http://www.w3.org/2000/svg">
<path d="M50.81 24.716C52.0927 25.3573 52.8327 26.3687 53.03 27.75C53.2767 29.1313 52.9313 30.3893 51.994 31.524C51.3527 32.412 50.514 32.9053 49.478 33.004C48.4913 33.1027 47.48 32.9053 46.444 32.412C45.26 31.8693 44.002 31.45 42.67 31.154C41.3873 30.858 40.0307 30.71 38.6 30.71C35.936 30.71 33.5433 31.1293 31.422 31.968C29.35 32.8067 27.574 34.0153 26.094 35.594C24.614 37.1233 23.4793 38.9487 22.69 41.07C21.95 43.1913 21.58 45.5347 21.58 48.1C21.58 51.1093 21.9993 53.724 22.838 55.944C23.726 58.164 24.9347 60.014 26.464 61.494C27.9933 62.974 29.794 64.084 31.866 64.824C33.938 65.5147 36.1827 65.86 38.6 65.86C39.932 65.86 41.264 65.7367 42.596 65.49C43.928 65.2433 45.2107 64.7993 46.444 64.158C47.48 63.6647 48.4913 63.492 49.478 63.64C50.514 63.788 51.3773 64.306 52.068 65.194C53.0547 66.4273 53.4 67.71 53.104 69.042C52.8573 70.3247 52.1173 71.262 50.884 71.854C49.6013 72.4953 48.2693 73.038 46.888 73.482C45.556 73.8767 44.1993 74.1727 42.818 74.37C41.4367 74.6167 40.0307 74.74 38.6 74.74C35.048 74.74 31.6687 74.1727 28.462 73.038C25.3047 71.9033 22.468 70.226 19.952 68.006C17.4853 65.786 15.5367 63.0233 14.106 59.718C12.6753 56.3633 11.96 52.4907 11.96 48.1C11.96 44.3013 12.6013 40.7987 13.884 37.592C15.216 34.3853 17.066 31.6227 19.434 29.304C21.8513 26.936 24.688 25.1107 27.944 23.828C31.2 22.496 34.752 21.83 38.6 21.83C40.7707 21.83 42.892 22.0767 44.964 22.57C47.036 23.0633 48.9847 23.7787 50.81 24.716ZM80.9985 33.67C84.5505 33.67 87.2392 34.4347 89.0645 35.964C90.9392 37.4933 92.2219 39.5407 92.9125 42.106C93.6032 44.622 93.9485 47.434 93.9485 50.542V69.486C93.9485 70.7687 93.5292 71.854 92.6905 72.742C91.8519 73.5807 90.7912 74 89.5085 74C88.2259 74 87.1652 73.5807 86.3265 72.742C85.4879 71.854 85.0685 70.7687 85.0685 69.486V50.542C85.0685 48.914 84.8712 47.4587 84.4765 46.176C84.0819 44.844 83.3665 43.7833 82.3305 42.994C81.2945 42.2047 79.8145 41.81 77.8905 41.81C76.0159 41.81 74.4125 42.2047 73.0805 42.994C71.7485 43.7833 70.7372 44.844 70.0465 46.176C69.4052 47.4587 69.0845 48.914 69.0845 50.542V69.486C69.0845 70.7687 68.6652 71.854 67.8265 72.742C66.9879 73.5807 65.9272 74 64.6445 74C63.3619 74 62.3012 73.5807 61.4625 72.742C60.6239 71.854 60.2045 70.7687 60.2045 69.486V23.754C60.2045 22.4713 60.6239 21.4107 61.4625 20.572C62.3012 19.684 63.3619 19.24 64.6445 19.24C65.9272 19.24 66.9879 19.684 67.8265 20.572C68.6652 21.4107 69.0845 22.4713 69.0845 23.754V42.106L67.9745 41.884C68.4185 41.0453 69.0352 40.1573 69.8245 39.22C70.6139 38.2333 71.5759 37.3207 72.7105 36.482C73.8452 35.6433 75.1032 34.9773 76.4845 34.484C77.8659 33.9413 79.3705 33.67 80.9985 33.67ZM141.97 54.242C141.97 58.2873 141.057 61.864 139.232 64.972C137.456 68.0307 135.039 70.4233 131.98 72.15C128.971 73.8767 125.591 74.74 121.842 74.74C118.093 74.74 114.689 73.8767 111.63 72.15C108.621 70.4233 106.203 68.0307 104.378 64.972C102.602 61.864 101.714 58.2873 101.714 54.242C101.714 50.1967 102.602 46.6447 104.378 43.586C106.203 40.478 108.621 38.0607 111.63 36.334C114.689 34.558 118.093 33.67 121.842 33.67C125.591 33.67 128.971 34.558 131.98 36.334C135.039 38.0607 137.456 40.478 139.232 43.586C141.057 46.6447 141.97 50.1967 141.97 54.242ZM133.09 54.242C133.09 51.726 132.572 49.5553 131.536 47.73C130.549 45.8553 129.193 44.4 127.466 43.364C125.789 42.328 123.914 41.81 121.842 41.81C119.77 41.81 117.871 42.328 116.144 43.364C114.467 44.4 113.11 45.8553 112.074 47.73C111.087 49.5553 110.594 51.726 110.594 54.242C110.594 56.7087 111.087 58.8793 112.074 60.754C113.11 62.5793 114.467 64.01 116.144 65.046C117.871 66.082 119.77 66.6 121.842 66.6C123.914 66.6 125.789 66.082 127.466 65.046C129.193 64.01 130.549 62.5793 131.536 60.754C132.572 58.8793 133.09 56.7087 133.09 54.242ZM188.148 54.242C188.148 58.2873 187.235 61.864 185.41 64.972C183.634 68.0307 181.216 70.4233 178.158 72.15C175.148 73.8767 171.769 74.74 168.02 74.74C164.27 74.74 160.866 73.8767 157.808 72.15C154.798 70.4233 152.381 68.0307 150.556 64.972C148.78 61.864 147.892 58.2873 147.892 54.242C147.892 50.1967 148.78 46.6447 150.556 43.586C152.381 40.478 154.798 38.0607 157.808 36.334C160.866 34.558 164.27 33.67 168.02 33.67C171.769 33.67 175.148 34.558 178.158 36.334C181.216 38.0607 183.634 40.478 185.41 43.586C187.235 46.6447 188.148 50.1967 188.148 54.242ZM179.268 54.242C179.268 51.726 178.75 49.5553 177.714 47.73C176.727 45.8553 175.37 44.4 173.644 43.364C171.966 42.328 170.092 41.81 168.02 41.81C165.948 41.81 164.048 42.328 162.322 43.364C160.644 44.4 159.288 45.8553 158.252 47.73C157.265 49.5553 156.772 51.726 156.772 54.242C156.772 56.7087 157.265 58.8793 158.252 60.754C159.288 62.5793 160.644 64.01 162.322 65.046C164.048 66.082 165.948 66.6 168.02 66.6C170.092 66.6 171.966 66.082 173.644 65.046C175.37 64.01 176.727 62.5793 177.714 60.754C178.75 58.8793 179.268 56.7087 179.268 54.242ZM193.625 67.858C193.132 67.1673 192.91 66.2793 192.959 65.194C193.009 64.1087 193.65 63.1713 194.883 62.382C195.673 61.8887 196.511 61.6913 197.399 61.79C198.287 61.8393 199.151 62.2833 199.989 63.122C201.42 64.5527 202.925 65.6627 204.503 66.452C206.082 67.2413 208.055 67.636 210.423 67.636C211.163 67.5867 211.977 67.488 212.865 67.34C213.753 67.1427 214.518 66.748 215.159 66.156C215.85 65.5147 216.195 64.5527 216.195 63.27C216.195 62.1847 215.825 61.3213 215.085 60.68C214.345 60.0387 213.359 59.496 212.125 59.052C210.941 58.608 209.609 58.1887 208.129 57.794C206.6 57.35 205.021 56.8567 203.393 56.314C201.815 55.7713 200.359 55.0807 199.027 54.242C197.695 53.354 196.61 52.1947 195.771 50.764C194.933 49.3333 194.513 47.5327 194.513 45.362C194.513 42.8953 195.204 40.7987 196.585 39.072C197.967 37.3453 199.743 36.0133 201.913 35.076C204.133 34.1387 206.452 33.67 208.869 33.67C210.399 33.67 212.002 33.8673 213.679 34.262C215.357 34.6073 216.96 35.1993 218.489 36.038C220.019 36.8273 221.301 37.888 222.337 39.22C222.88 39.96 223.201 40.848 223.299 41.884C223.398 42.92 222.929 43.8573 221.893 44.696C221.153 45.288 220.29 45.5593 219.303 45.51C218.317 45.4113 217.503 45.066 216.861 44.474C216.023 43.3887 214.888 42.5253 213.457 41.884C212.076 41.2427 210.473 40.922 208.647 40.922C207.907 40.922 207.093 41.0207 206.205 41.218C205.367 41.366 204.627 41.736 203.985 42.328C203.344 42.8707 203.023 43.7587 203.023 44.992C203.023 46.1267 203.393 47.0393 204.133 47.73C204.873 48.3713 205.86 48.914 207.093 49.358C208.376 49.7527 209.733 50.1473 211.163 50.542C212.643 50.9367 214.148 51.4053 215.677 51.948C217.207 52.4907 218.613 53.206 219.895 54.094C221.178 54.982 222.214 56.1413 223.003 57.572C223.793 58.9533 224.187 60.7293 224.187 62.9C224.187 65.416 223.447 67.562 221.967 69.338C220.487 71.114 218.637 72.4707 216.417 73.408C214.197 74.296 211.928 74.74 209.609 74.74C206.699 74.74 203.788 74.2467 200.877 73.26C197.967 72.224 195.549 70.4233 193.625 67.858ZM250.267 74.74C246.073 74.74 242.423 73.8767 239.315 72.15C236.256 70.374 233.888 67.9813 232.211 64.972C230.583 61.9627 229.769 58.5587 229.769 54.76C229.769 50.32 230.657 46.546 232.433 43.438C234.258 40.2807 236.626 37.8633 239.537 36.186C242.447 34.5087 245.531 33.67 248.787 33.67C251.303 33.67 253.671 34.188 255.891 35.224C258.16 36.26 260.158 37.6907 261.885 39.516C263.611 41.292 264.968 43.364 265.955 45.732C266.991 48.1 267.509 50.616 267.509 53.28C267.459 54.464 266.991 55.426 266.103 56.166C265.215 56.906 264.179 57.276 262.995 57.276H234.727L232.507 49.876H259.665L258.037 51.356V49.358C257.938 47.9273 257.42 46.6447 256.483 45.51C255.595 44.3753 254.46 43.4873 253.079 42.846C251.747 42.1553 250.316 41.81 248.787 41.81C247.307 41.81 245.925 42.0073 244.643 42.402C243.36 42.7967 242.25 43.4627 241.313 44.4C240.375 45.3373 239.635 46.5953 239.093 48.174C238.55 49.7527 238.279 51.7507 238.279 54.168C238.279 56.832 238.821 59.1013 239.907 60.976C241.041 62.8013 242.472 64.2073 244.199 65.194C245.975 66.1313 247.849 66.6 249.823 66.6C251.648 66.6 253.103 66.452 254.189 66.156C255.274 65.86 256.137 65.5147 256.779 65.12C257.469 64.676 258.086 64.306 258.629 64.01C259.517 63.566 260.355 63.344 261.145 63.344C262.23 63.344 263.118 63.714 263.809 64.454C264.549 65.194 264.919 66.0573 264.919 67.044C264.919 68.376 264.228 69.5847 262.847 70.67C261.564 71.7553 259.763 72.7173 257.445 73.556C255.126 74.3453 252.733 74.74 250.267 74.74ZM329.751 21.978C330.886 21.978 331.897 22.422 332.785 23.31C333.723 24.1487 334.191 25.234 334.191 26.566C334.191 27.01 334.117 27.4787 333.969 27.972C333.871 28.416 333.673 28.86 333.377 29.304L316.579 53.354L317.911 48.248V69.486C317.911 70.7687 317.467 71.854 316.579 72.742C315.741 73.5807 314.754 74 313.619 74C312.386 74 311.325 73.5807 310.437 72.742C309.599 71.854 309.179 70.7687 309.179 69.486V48.84L309.771 51.208L293.787 29.97C293.294 29.3287 292.949 28.712 292.751 28.12C292.554 27.528 292.455 26.9853 292.455 26.492C292.455 25.16 292.973 24.0747 294.009 23.236C295.045 22.3973 296.106 21.978 297.191 21.978C298.573 21.978 299.781 22.6687 300.817 24.05L315.025 43.66L312.953 43.364L326.051 24.198C327.087 22.718 328.321 21.978 329.751 21.978ZM375.46 54.242C375.46 58.2873 374.547 61.864 372.722 64.972C370.946 68.0307 368.529 70.4233 365.47 72.15C362.461 73.8767 359.081 74.74 355.332 74.74C351.583 74.74 348.179 73.8767 345.12 72.15C342.111 70.4233 339.693 68.0307 337.868 64.972C336.092 61.864 335.204 58.2873 335.204 54.242C335.204 50.1967 336.092 46.6447 337.868 43.586C339.693 40.478 342.111 38.0607 345.12 36.334C348.179 34.558 351.583 33.67 355.332 33.67C359.081 33.67 362.461 34.558 365.47 36.334C368.529 38.0607 370.946 40.478 372.722 43.586C374.547 46.6447 375.46 50.1967 375.46 54.242ZM366.58 54.242C366.58 51.726 366.062 49.5553 365.026 47.73C364.039 45.8553 362.683 44.4 360.956 43.364C359.279 42.328 357.404 41.81 355.332 41.81C353.26 41.81 351.361 42.328 349.634 43.364C347.957 44.4 346.6 45.8553 345.564 47.73C344.577 49.5553 344.084 51.726 344.084 54.242C344.084 56.7087 344.577 58.8793 345.564 60.754C346.6 62.5793 347.957 64.01 349.634 65.046C351.361 66.082 353.26 66.6 355.332 66.6C357.404 66.6 359.279 66.082 360.956 65.046C362.683 64.01 364.039 62.5793 365.026 60.754C366.062 58.8793 366.58 56.7087 366.58 54.242ZM412.61 34.41C413.893 34.41 414.953 34.854 415.792 35.742C416.631 36.5807 417.05 37.6413 417.05 38.924V57.72C417.05 62.9493 415.595 67.0933 412.684 70.152C409.773 73.2107 405.58 74.74 400.104 74.74C394.628 74.74 390.435 73.2107 387.524 70.152C384.663 67.0933 383.232 62.9493 383.232 57.72V38.924C383.232 37.6413 383.651 36.5807 384.49 35.742C385.329 34.854 386.389 34.41 387.672 34.41C388.955 34.41 390.015 34.854 390.854 35.742C391.693 36.5807 392.112 37.6413 392.112 38.924V57.72C392.112 60.7293 392.778 62.974 394.11 64.454C395.442 65.8847 397.44 66.6 400.104 66.6C402.817 66.6 404.84 65.8847 406.172 64.454C407.504 62.974 408.17 60.7293 408.17 57.72V38.924C408.17 37.6413 408.589 36.5807 409.428 35.742C410.267 34.854 411.327 34.41 412.61 34.41ZM431.104 74C429.821 74 428.76 73.5807 427.922 72.742C427.083 71.854 426.664 70.7687 426.664 69.486V38.924C426.664 37.6413 427.083 36.5807 427.922 35.742C428.76 34.854 429.821 34.41 431.104 34.41C432.386 34.41 433.447 34.854 434.286 35.742C435.124 36.5807 435.544 37.6413 435.544 38.924V45.88L435.026 40.922C435.568 39.738 436.259 38.702 437.098 37.814C437.986 36.8767 438.972 36.112 440.058 35.52C441.143 34.8787 442.302 34.41 443.536 34.114C444.769 33.818 446.002 33.67 447.236 33.67C448.716 33.67 449.949 34.0893 450.936 34.928C451.972 35.7667 452.49 36.7533 452.49 37.888C452.49 39.516 452.07 40.7 451.232 41.44C450.393 42.1307 449.48 42.476 448.494 42.476C447.556 42.476 446.693 42.3033 445.904 41.958C445.164 41.6127 444.3 41.44 443.314 41.44C442.426 41.44 441.513 41.662 440.576 42.106C439.688 42.5007 438.849 43.142 438.06 44.03C437.32 44.918 436.703 46.028 436.21 47.36C435.766 48.6427 435.544 50.172 435.544 51.948V69.486C435.544 70.7687 435.124 71.854 434.286 72.742C433.447 73.5807 432.386 74 431.104 74ZM497.768 74C496.386 74 495.252 73.5807 494.364 72.742C493.476 71.854 493.032 70.7687 493.032 69.486V26.566H502.652V69.486C502.652 70.7687 502.183 71.854 501.246 72.742C500.358 73.5807 499.198 74 497.768 74ZM481.414 30.71C480.131 30.71 479.046 30.3153 478.158 29.526C477.319 28.7367 476.9 27.7007 476.9 26.418C476.9 25.1353 477.319 24.124 478.158 23.384C479.046 22.5947 480.131 22.2 481.414 22.2H514.27C515.552 22.2 516.613 22.5947 517.452 23.384C518.34 24.1733 518.784 25.2093 518.784 26.492C518.784 27.7747 518.34 28.8107 517.452 29.6C516.613 30.34 515.552 30.71 514.27 30.71H481.414ZM554.467 34.41C555.75 34.41 556.811 34.854 557.649 35.742C558.488 36.5807 558.907 37.6413 558.907 38.924V70.374C558.907 74.9127 558.044 78.514 556.317 81.178C554.64 83.8913 552.371 85.84 549.509 87.024C546.648 88.208 543.441 88.8 539.889 88.8C538.311 88.8 536.633 88.6767 534.857 88.43C533.081 88.1833 531.626 87.8133 530.491 87.32C529.011 86.6787 527.975 85.8647 527.383 84.878C526.841 83.9407 526.742 82.9293 527.087 81.844C527.531 80.4133 528.247 79.4267 529.233 78.884C530.22 78.3907 531.256 78.3413 532.341 78.736C533.131 78.9827 534.167 79.3527 535.449 79.846C536.732 80.3887 538.212 80.66 539.889 80.66C542.159 80.66 544.033 80.3393 545.513 79.698C547.043 79.106 548.177 78.07 548.917 76.59C549.707 75.1593 550.101 73.186 550.101 70.67V65.712L551.655 67.488C550.817 69.116 549.756 70.4727 548.473 71.558C547.24 72.594 545.76 73.3833 544.033 73.926C542.307 74.4687 540.333 74.74 538.113 74.74C535.499 74.74 533.205 74.148 531.231 72.964C529.307 71.7307 527.803 70.0533 526.717 67.932C525.632 65.7613 525.089 63.2947 525.089 60.532V38.924C525.089 37.6413 525.509 36.5807 526.347 35.742C527.186 34.854 528.247 34.41 529.529 34.41C530.812 34.41 531.873 34.854 532.711 35.742C533.55 36.5807 533.969 37.6413 533.969 38.924V57.868C533.969 61.0747 534.66 63.344 536.041 64.676C537.472 65.9587 539.445 66.6 541.961 66.6C543.688 66.6 545.143 66.2793 546.327 65.638C547.511 64.9473 548.424 63.9607 549.065 62.678C549.707 61.346 550.027 59.7427 550.027 57.868V38.924C550.027 37.6413 550.447 36.5807 551.285 35.742C552.124 34.854 553.185 34.41 554.467 34.41ZM589.019 33.67C592.472 33.67 595.556 34.558 598.269 36.334C601.032 38.0607 603.202 40.4533 604.781 43.512C606.409 46.5707 607.223 50.1227 607.223 54.168C607.223 58.2133 606.409 61.79 604.781 64.898C603.202 67.9567 601.056 70.374 598.343 72.15C595.679 73.8767 592.67 74.74 589.315 74.74C587.342 74.74 585.492 74.4193 583.765 73.778C582.038 73.1367 580.509 72.3227 579.177 71.336C577.894 70.3493 576.883 69.3627 576.143 68.376C575.452 67.34 575.107 66.4767 575.107 65.786L577.401 64.824V84.286C577.401 85.5687 576.982 86.6293 576.143 87.468C575.304 88.356 574.244 88.8 572.961 88.8C571.678 88.8 570.618 88.3807 569.779 87.542C568.94 86.7033 568.521 85.618 568.521 84.286V38.924C568.521 37.6413 568.94 36.5807 569.779 35.742C570.618 34.854 571.678 34.41 572.961 34.41C574.244 34.41 575.304 34.854 576.143 35.742C576.982 36.5807 577.401 37.6413 577.401 38.924V42.55L576.143 41.884C576.143 41.2427 576.488 40.478 577.179 39.59C577.87 38.6527 578.807 37.74 579.991 36.852C581.175 35.9147 582.532 35.15 584.061 34.558C585.64 33.966 587.292 33.67 589.019 33.67ZM587.909 41.81C585.738 41.81 583.839 42.3527 582.211 43.438C580.583 44.5233 579.3 46.0033 578.363 47.878C577.475 49.7033 577.031 51.8 577.031 54.168C577.031 56.4867 577.475 58.608 578.363 60.532C579.3 62.4067 580.583 63.8867 582.211 64.972C583.839 66.0573 585.738 66.6 587.909 66.6C590.08 66.6 591.954 66.0573 593.533 64.972C595.161 63.8867 596.419 62.4067 597.307 60.532C598.244 58.608 598.713 56.4867 598.713 54.168C598.713 51.8 598.244 49.7033 597.307 47.878C596.419 46.0033 595.161 44.5233 593.533 43.438C591.954 42.3527 590.08 41.81 587.909 41.81ZM633.636 74.74C629.442 74.74 625.792 73.8767 622.684 72.15C619.625 70.374 617.257 67.9813 615.58 64.972C613.952 61.9627 613.138 58.5587 613.138 54.76C613.138 50.32 614.026 46.546 615.802 43.438C617.627 40.2807 619.995 37.8633 622.906 36.186C625.816 34.5087 628.9 33.67 632.156 33.67C634.672 33.67 637.04 34.188 639.26 35.224C641.529 36.26 643.527 37.6907 645.254 39.516C646.98 41.292 648.337 43.364 649.324 45.732C650.36 48.1 650.878 50.616 650.878 53.28C650.828 54.464 650.36 55.426 649.472 56.166C648.584 56.906 647.548 57.276 646.364 57.276H618.096L615.876 49.876H643.034L641.406 51.356V49.358C641.307 47.9273 640.789 46.6447 639.852 45.51C638.964 44.3753 637.829 43.4873 636.448 42.846C635.116 42.1553 633.685 41.81 632.156 41.81C630.676 41.81 629.294 42.0073 628.012 42.402C626.729 42.7967 625.619 43.4627 624.682 44.4C623.744 45.3373 623.004 46.5953 622.462 48.174C621.919 49.7527 621.648 51.7507 621.648 54.168C621.648 56.832 622.19 59.1013 623.276 60.976C624.41 62.8013 625.841 64.2073 627.568 65.194C629.344 66.1313 631.218 66.6 633.192 66.6C635.017 66.6 636.472 66.452 637.558 66.156C638.643 65.86 639.506 65.5147 640.148 65.12C640.838 64.676 641.455 64.306 641.998 64.01C642.886 63.566 643.724 63.344 644.514 63.344C645.599 63.344 646.487 63.714 647.178 64.454C647.918 65.194 648.288 66.0573 648.288 67.044C648.288 68.376 647.597 69.5847 646.216 70.67C644.933 71.7553 643.132 72.7173 640.814 73.556C638.495 74.3453 636.102 74.74 633.636 74.74Z" fill="#222222"/>
<path d="M9 109.431C71.1285 100.856 230.664 100.856 357.077 109.431C488.903 118.372 608.923 118.005 654 109.431" stroke="url(#paint0_linear_530_41)" stroke-width="15" stroke-linecap="square"/>
<defs>
<linearGradient id="paint0_linear_530_41" x1="654" y1="116" x2="613.418" y2="-47.9146" gradientUnits="userSpaceOnUse">
<stop stop-color="#3D97D8"/>
<stop offset="0.401042" stop-color="#61E2B4"/>
<stop offset="0.75" stop-color="#9FEB3F"/>
<stop offset="1" stop-color="#FFDE60"/>
</linearGradient>
</defs>
</svg>
